solid ff_geometry
   facet normal -8.712106e-01 4.909094e-01 0.000000e+00
      outer loop
         vertex -8.347045e-01 3.304518e+00 -1.700000e-02
         vertex -8.347045e-01 3.304518e+00 1.700000e-02
         vertex -7.989855e-01 3.367908e+00 1.700000e-02
      endloop
   endfacet
   facet normal -8.712106e-01 4.909094e-01 0.000000e+00
      outer loop
         vertex -8.347045e-01 3.304518e+00 -1.700000e-02
         vertex -7.989855e-01 3.367908e+00 1.700000e-02
         vertex -7.989855e-01 3.367908e+00 -1.700000e-02
      endloop
   endfacet
   facet normal -8.471173e-01 5.314060e-01 0.000000e+00
      outer loop
         vertex -7.989855e-01 3.367908e+00 -1.700000e-02
         vertex -7.989855e-01 3.367908e+00 1.700000e-02
         vertex -7.465077e-01 3.451563e+00 1.700000e-02
      endloop
   endfacet
   facet normal -8.471173e-01 5.314060e-01 0.000000e+00
      outer loop
         vertex -7.989855e-01 3.367908e+00 -1.700000e-02
         vertex -7.465077e-01 3.451563e+00 1.700000e-02
         vertex -7.465077e-01 3.451563e+00 -1.700000e-02
      endloop
   endfacet
   facet normal -8.017419e-01 5.976705e-01 0.000000e+00
      outer loop
         vertex -7.465077e-01 3.451563e+00 -1.700000e-02
         vertex -7.465077e-01 3.451563e+00 1.700000e-02
         vertex -7.035837e-01 3.509143e+00 1.700000e-02
      endloop
   endfacet
   facet normal -8.017419e-01 5.976705e-01 0.000000e+00
      outer loop
         vertex -7.465077e-01 3.451563e+00 -1.700000e-02
         vertex -7.035837e-01 3.509143e+00 1.700000e-02
         vertex -7.035837e-01 3.509143e+00 -1.700000e-02
      endloop
   endfacet
   facet normal -7.428494e-01 6.694585e-01 0.000000e+00
      outer loop
         vertex -7.035837e-01 3.509143e+00 -1.700000e-02
         vertex -7.035837e-01 3.509143e+00 1.700000e-02
         vertex -6.606464e-01 3.556787e+00 1.700000e-02
      endloop
   endfacet
   facet normal -7.428494e-01 6.694585e-01 0.000000e+00
      outer loop
         vertex -7.035837e-01 3.509143e+00 -1.700000e-02
         vertex -6.606464e-01 3.556787e+00 1.700000e-02
         vertex -6.606464e-01 3.556787e+00 -1.700000e-02
      endloop
   endfacet
   facet normal -6.607090e-01 7.506421e-01 0.000000e+00
      outer loop
         vertex -6.606464e-01 3.556787e+00 -1.700000e-02
         vertex -6.606464e-01 3.556787e+00 1.700000e-02
         vertex -6.113023e-01 3.600219e+00 1.700000e-02
      endloop
   endfacet
   facet normal -6.607090e-01 7.506421e-01 0.000000e+00
      outer loop
         vertex -6.606464e-01 3.556787e+00 -1.700000e-02
         vertex -6.113023e-01 3.600219e+00 1.700000e-02
         vertex -6.113023e-01 3.600219e+00 -1.700000e-02
      endloop
   endfacet
   facet normal -5.610987e-01 8.277489e-01 0.000000e+00
      outer loop
         vertex -6.113023e-01 3.600219e+00 -1.700000e-02
         vertex -6.113023e-01 3.600219e+00 1.700000e-02
         vertex -5.607550e-01 3.634484e+00 1.700000e-02
      endloop
   endfacet
   facet normal -5.610987e-01 8.277489e-01 0.000000e+00
      outer loop
         vertex -6.113023e-01 3.600219e+00 -1.700000e-02
         vertex -5.607550e-01 3.634484e+00 1.700000e-02
         vertex -5.607550e-01 3.634484e+00 -1.700000e-02
      endloop
   endfacet
   facet normal -4.703229e-01 8.824944e-01 0.000000e+00
      outer loop
         vertex -5.607550e-01 3.634484e+00 -1.700000e-02
         vertex -5.607550e-01 3.634484e+00 1.700000e-02
         vertex -4.874767e-01 3.673537e+00 1.700000e-02
      endloop
   endfacet
   facet normal -4.703229e-01 8.824944e-01 0.000000e+00
      outer loop
         vertex -5.607550e-01 3.634484e+00 -1.700000e-02
         vertex -4.874767e-01 3.673537e+00 1.700000e-02
         vertex -4.874767e-01 3.673537e+00 -1.700000e-02
      endloop
   endfacet
   facet normal -3.981407e-01 9.173244e-01 0.000000e+00
      outer loop
         vertex -4.874767e-01 3.673537e+00 -1.700000e-02
         vertex -4.874767e-01 3.673537e+00 1.700000e-02
         vertex -4.132843e-01 3.705738e+00 1.700000e-02
      endloop
   endfacet
   facet normal -3.981407e-01 9.173244e-01 0.000000e+00
      outer loop
         vertex -4.874767e-01 3.673537e+00 -1.700000e-02
         vertex -4.132843e-01 3.705738e+00 1.700000e-02
         vertex -4.132843e-01 3.705738e+00 -1.700000e-02
      endloop
   endfacet
   facet normal -3.024554e-01 9.531635e-01 0.000000e+00
      outer loop
         vertex -4.132843e-01 3.705738e+00 -1.700000e-02
         vertex -4.132843e-01 3.705738e+00 1.700000e-02
         vertex -3.562037e-01 3.723851e+00 1.700000e-02
      endloop
   endfacet
   facet normal -3.024554e-01 9.531635e-01 0.000000e+00
      outer loop
         vertex -4.132843e-01 3.705738e+00 -1.700000e-02
         vertex -3.562037e-01 3.723851e+00 1.700000e-02
         vertex -3.562037e-01 3.723851e+00 -1.700000e-02
      endloop
   endfacet
   facet normal -1.798528e-01 9.836935e-01 0.000000e+00
      outer loop
         vertex -3.562037e-01 3.723851e+00 -1.700000e-02
         vertex -3.562037e-01 3.723851e+00 1.700000e-02
         vertex -3.021092e-01 3.733741e+00 1.700000e-02
      endloop
   endfacet
   facet normal -1.798528e-01 9.836935e-01 0.000000e+00
      outer loop
         vertex -3.562037e-01 3.723851e+00 -1.700000e-02
         vertex -3.021092e-01 3.733741e+00 1.700000e-02
         vertex -3.021092e-01 3.733741e+00 -1.700000e-02
      endloop
   endfacet
   facet normal -4.389012e-02 9.990364e-01 0.000000e+00
      outer loop
         vertex -3.021092e-01 3.733741e+00 -1.700000e-02
         vertex -3.021092e-01 3.733741e+00 1.700000e-02
         vertex -2.500649e-01 3.736028e+00 1.700000e-02
      endloop
   endfacet
   facet normal -4.389012e-02 9.990364e-01 0.000000e+00
      outer loop
         vertex -3.021092e-01 3.733741e+00 -1.700000e-02
         vertex -2.500649e-01 3.736028e+00 1.700000e-02
         vertex -2.500649e-01 3.736028e+00 -1.700000e-02
      endloop
   endfacet
   facet normal 1.032778e-01 9.946526e-01 -0.000000e+00
      outer loop
         vertex -2.500649e-01 3.736028e+00 -1.700000e-02
         vertex -2.500649e-01 3.736028e+00 1.700000e-02
         vertex -1.988258e-01 3.730707e+00 1.700000e-02
      endloop
   endfacet
   facet normal 1.032778e-01 9.946526e-01 0.000000e+00
      outer loop
         vertex -2.500649e-01 3.736028e+00 -1.700000e-02
         vertex -1.988258e-01 3.730707e+00 1.700000e-02
         vertex -1.988258e-01 3.730707e+00 -1.700000e-02
      endloop
   endfacet
   facet normal 2.563290e-01 9.665896e-01 -0.000000e+00
      outer loop
         vertex -1.988258e-01 3.730707e+00 -1.700000e-02
         vertex -1.988258e-01 3.730707e+00 1.700000e-02
         vertex -1.517839e-01 3.718232e+00 1.700000e-02
      endloop
   endfacet
   facet normal 2.563290e-01 9.665896e-01 0.000000e+00
      outer loop
         vertex -1.988258e-01 3.730707e+00 -1.700000e-02
         vertex -1.517839e-01 3.718232e+00 1.700000e-02
         vertex -1.517839e-01 3.718232e+00 -1.700000e-02
      endloop
   endfacet
   facet normal 3.931966e-01 9.194544e-01 -0.000000e+00
      outer loop
         vertex -1.517839e-01 3.718232e+00 -1.700000e-02
         vertex -1.517839e-01 3.718232e+00 1.700000e-02
         vertex -1.042904e-01 3.697922e+00 1.700000e-02
      endloop
   endfacet
   facet normal 3.931966e-01 9.194544e-01 0.000000e+00
      outer loop
         vertex -1.517839e-01 3.718232e+00 -1.700000e-02
         vertex -1.042904e-01 3.697922e+00 1.700000e-02
         vertex -1.042904e-01 3.697922e+00 -1.700000e-02
      endloop
   endfacet
   facet normal 5.114684e-01 8.593021e-01 -0.000000e+00
      outer loop
         vertex -1.042904e-01 3.697922e+00 -1.700000e-02
         vertex -1.042904e-01 3.697922e+00 1.700000e-02
         vertex -5.938528e-02 3.671194e+00 1.700000e-02
      endloop
   endfacet
   facet normal 5.114684e-01 8.593021e-01 0.000000e+00
      outer loop
         vertex -1.042904e-01 3.697922e+00 -1.700000e-02
         vertex -5.938528e-02 3.671194e+00 1.700000e-02
         vertex -5.938528e-02 3.671194e+00 -1.700000e-02
      endloop
   endfacet
   facet normal 6.142862e-01 7.890833e-01 -0.000000e+00
      outer loop
         vertex -5.938528e-02 3.671194e+00 -1.700000e-02
         vertex -5.938528e-02 3.671194e+00 1.700000e-02
         vertex -1.348498e-02 3.635462e+00 1.700000e-02
      endloop
   endfacet
   facet normal 6.142862e-01 7.890833e-01 0.000000e+00
      outer loop
         vertex -5.938528e-02 3.671194e+00 -1.700000e-02
         vertex -1.348498e-02 3.635462e+00 1.700000e-02
         vertex -1.348498e-02 3.635462e+00 -1.700000e-02
      endloop
   endfacet
   facet normal 7.004446e-01 7.137067e-01 -0.000000e+00
      outer loop
         vertex -1.348498e-02 3.635462e+00 -1.700000e-02
         vertex -1.348498e-02 3.635462e+00 1.700000e-02
         vertex 3.241328e-02 3.590416e+00 1.700000e-02
      endloop
   endfacet
   facet normal 7.004446e-01 7.137067e-01 0.000000e+00
      outer loop
         vertex -1.348498e-02 3.635462e+00 -1.700000e-02
         vertex 3.241328e-02 3.590416e+00 1.700000e-02
         vertex 3.241328e-02 3.590416e+00 -1.700000e-02
      endloop
   endfacet
   facet normal 7.669185e-01 6.417445e-01 -0.000000e+00
      outer loop
         vertex 3.241328e-02 3.590416e+00 -1.700000e-02
         vertex 3.241328e-02 3.590416e+00 1.700000e-02
         vertex 7.910594e-02 3.534616e+00 1.700000e-02
      endloop
   endfacet
   facet normal 7.669185e-01 6.417445e-01 0.000000e+00
      outer loop
         vertex 3.241328e-02 3.590416e+00 -1.700000e-02
         vertex 7.910594e-02 3.534616e+00 1.700000e-02
         vertex 7.910594e-02 3.534616e+00 -1.700000e-02
      endloop
   endfacet
   facet normal 8.154089e-01 5.788854e-01 -0.000000e+00
      outer loop
         vertex 7.910594e-02 3.534616e+00 -1.700000e-02
         vertex 7.910594e-02 3.534616e+00 1.700000e-02
         vertex 1.327939e-01 3.458992e+00 1.700000e-02
      endloop
   endfacet
   facet normal 8.154089e-01 5.788854e-01 0.000000e+00
      outer loop
         vertex 7.910594e-02 3.534616e+00 -1.700000e-02
         vertex 1.327939e-01 3.458992e+00 1.700000e-02
         vertex 1.327939e-01 3.458992e+00 -1.700000e-02
      endloop
   endfacet
   facet normal 8.954022e-01 4.452582e-01 -0.000000e+00
      outer loop
         vertex 1.327939e-01 3.458992e+00 -1.700000e-02
         vertex 1.327939e-01 3.458992e+00 1.700000e-02
         vertex 1.778357e-01 3.368414e+00 1.700000e-02
      endloop
   endfacet
   facet normal 8.954022e-01 4.452582e-01 0.000000e+00
      outer loop
         vertex 1.327939e-01 3.458992e+00 -1.700000e-02
         vertex 1.778357e-01 3.368414e+00 1.700000e-02
         vertex 1.778357e-01 3.368414e+00 -1.700000e-02
      endloop
   endfacet
   facet normal 9.185147e-01 3.953868e-01 -0.000000e+00
      outer loop
         vertex 1.778357e-01 3.368414e+00 -1.700000e-02
         vertex 1.778357e-01 3.368414e+00 1.700000e-02
         vertex 2.281330e-01 3.251570e+00 1.700000e-02
      endloop
   endfacet
   facet normal 9.185147e-01 3.953868e-01 0.000000e+00
      outer loop
         vertex 1.778357e-01 3.368414e+00 -1.700000e-02
         vertex 2.281330e-01 3.251570e+00 1.700000e-02
         vertex 2.281330e-01 3.251570e+00 -1.700000e-02
      endloop
   endfacet
   facet normal 9.402492e-01 3.404871e-01 -0.000000e+00
      outer loop
         vertex 2.281330e-01 3.251570e+00 -1.700000e-02
         vertex 2.281330e-01 3.251570e+00 1.700000e-02
         vertex 2.706586e-01 3.134136e+00 1.700000e-02
      endloop
   endfacet
   facet normal 9.402492e-01 3.404871e-01 0.000000e+00
      outer loop
         vertex 2.281330e-01 3.251570e+00 -1.700000e-02
         vertex 2.706586e-01 3.134136e+00 1.700000e-02
         vertex 2.706586e-01 3.134136e+00 -1.700000e-02
      endloop
   endfacet
   facet normal 9.596135e-01 2.813217e-01 -0.000000e+00
      outer loop
         vertex 2.706586e-01 3.134136e+00 -1.700000e-02
         vertex 2.706586e-01 3.134136e+00 1.700000e-02
         vertex 3.061965e-01 3.012913e+00 1.700000e-02
      endloop
   endfacet
   facet normal 9.596135e-01 2.813217e-01 0.000000e+00
      outer loop
         vertex 2.706586e-01 3.134136e+00 -1.700000e-02
         vertex 3.061965e-01 3.012913e+00 1.700000e-02
         vertex 3.061965e-01 3.012913e+00 -1.700000e-02
      endloop
   endfacet
   facet normal 9.757630e-01 2.188301e-01 -0.000000e+00
      outer loop
         vertex 3.061965e-01 3.012913e+00 -1.700000e-02
         vertex 3.061965e-01 3.012913e+00 1.700000e-02
         vertex 3.348320e-01 2.885227e+00 1.700000e-02
      endloop
   endfacet
   facet normal 9.757630e-01 2.188301e-01 0.000000e+00
      outer loop
         vertex 3.061965e-01 3.012913e+00 -1.700000e-02
         vertex 3.348320e-01 2.885227e+00 1.700000e-02
         vertex 3.348320e-01 2.885227e+00 -1.700000e-02
      endloop
   endfacet
   facet normal 9.869298e-01 1.611511e-01 -0.000000e+00
      outer loop
         vertex 3.348320e-01 2.885227e+00 -1.700000e-02
         vertex 3.348320e-01 2.885227e+00 1.700000e-02
         vertex 3.531885e-01 2.772807e+00 1.700000e-02
      endloop
   endfacet
   facet normal 9.869298e-01 1.611511e-01 0.000000e+00
      outer loop
         vertex 3.348320e-01 2.885227e+00 -1.700000e-02
         vertex 3.531885e-01 2.772807e+00 1.700000e-02
         vertex 3.531885e-01 2.772807e+00 -1.700000e-02
      endloop
   endfacet
   facet normal 9.945373e-01 1.043815e-01 -0.000000e+00
      outer loop
         vertex 3.531885e-01 2.772807e+00 -1.700000e-02
         vertex 3.531885e-01 2.772807e+00 1.700000e-02
         vertex 3.685652e-01 2.626299e+00 1.700000e-02
      endloop
   endfacet
   facet normal 9.945373e-01 1.043815e-01 0.000000e+00
      outer loop
         vertex 3.531885e-01 2.772807e+00 -1.700000e-02
         vertex 3.685652e-01 2.626299e+00 1.700000e-02
         vertex 3.685652e-01 2.626299e+00 -1.700000e-02
      endloop
   endfacet
   facet normal 9.988368e-01 4.821856e-02 -0.000000e+00
      outer loop
         vertex 3.685652e-01 2.626299e+00 -1.700000e-02
         vertex 3.685652e-01 2.626299e+00 1.700000e-02
         vertex 3.753821e-01 2.485090e+00 1.700000e-02
      endloop
   endfacet
   facet normal 9.988368e-01 4.821856e-02 0.000000e+00
      outer loop
         vertex 3.685652e-01 2.626299e+00 -1.700000e-02
         vertex 3.753821e-01 2.485090e+00 1.700000e-02
         vertex 3.753821e-01 2.485090e+00 -1.700000e-02
      endloop
   endfacet
   facet normal 9.999990e-01 -1.445962e-03 0.000000e+00
      outer loop
         vertex 3.753821e-01 2.485090e+00 -1.700000e-02
         vertex 3.753821e-01 2.485090e+00 1.700000e-02
         vertex 3.751641e-01 2.334322e+00 1.700000e-02
      endloop
   endfacet
   facet normal 9.999990e-01 -1.445962e-03 0.000000e+00
      outer loop
         vertex 3.753821e-01 2.485090e+00 -1.700000e-02
         vertex 3.751641e-01 2.334322e+00 1.700000e-02
         vertex 3.751641e-01 2.334322e+00 -1.700000e-02
      endloop
   endfacet
   facet normal 9.988885e-01 -4.713543e-02 0.000000e+00
      outer loop
         vertex 3.751641e-01 2.334322e+00 -1.700000e-02
         vertex 3.751641e-01 2.334322e+00 1.700000e-02
         vertex 3.676927e-01 2.175989e+00 1.700000e-02
      endloop
   endfacet
   facet normal 9.988885e-01 -4.713543e-02 0.000000e+00
      outer loop
         vertex 3.751641e-01 2.334322e+00 -1.700000e-02
         vertex 3.676927e-01 2.175989e+00 1.700000e-02
         vertex 3.676927e-01 2.175989e+00 -1.700000e-02
      endloop
   endfacet
   facet normal 9.959992e-01 -8.936237e-02 0.000000e+00
      outer loop
         vertex 3.676927e-01 2.175989e+00 -1.700000e-02
         vertex 3.676927e-01 2.175989e+00 1.700000e-02
         vertex 3.523804e-01 2.005324e+00 1.700000e-02
      endloop
   endfacet
   facet normal 9.959992e-01 -8.936237e-02 0.000000e+00
      outer loop
         vertex 3.676927e-01 2.175989e+00 -1.700000e-02
         vertex 3.523804e-01 2.005324e+00 1.700000e-02
         vertex 3.523804e-01 2.005324e+00 -1.700000e-02
      endloop
   endfacet
   facet normal 9.916885e-01 -1.286623e-01 0.000000e+00
      outer loop
         vertex 3.523804e-01 2.005324e+00 -1.700000e-02
         vertex 3.523804e-01 2.005324e+00 1.700000e-02
         vertex 3.290589e-01 1.825569e+00 1.700000e-02
      endloop
   endfacet
   facet normal 9.916885e-01 -1.286623e-01 0.000000e+00
      outer loop
         vertex 3.523804e-01 2.005324e+00 -1.700000e-02
         vertex 3.290589e-01 1.825569e+00 1.700000e-02
         vertex 3.290589e-01 1.825569e+00 -1.700000e-02
      endloop
   endfacet
   facet normal 9.862955e-01 -1.649883e-01 0.000000e+00
      outer loop
         vertex 3.290589e-01 1.825569e+00 -1.700000e-02
         vertex 3.290589e-01 1.825569e+00 1.700000e-02
         vertex 2.977349e-01 1.638315e+00 1.700000e-02
      endloop
   endfacet
   facet normal 9.862955e-01 -1.649883e-01 0.000000e+00
      outer loop
         vertex 3.290589e-01 1.825569e+00 -1.700000e-02
         vertex 2.977349e-01 1.638315e+00 1.700000e-02
         vertex 2.977349e-01 1.638315e+00 -1.700000e-02
      endloop
   endfacet
   facet normal 9.797016e-01 -2.004612e-01 0.000000e+00
      outer loop
         vertex 2.977349e-01 1.638315e+00 -1.700000e-02
         vertex 2.977349e-01 1.638315e+00 1.700000e-02
         vertex 2.533500e-01 1.421396e+00 1.700000e-02
      endloop
   endfacet
   facet normal 9.797016e-01 -2.004612e-01 0.000000e+00
      outer loop
         vertex 2.977349e-01 1.638315e+00 -1.700000e-02
         vertex 2.533500e-01 1.421396e+00 1.700000e-02
         vertex 2.533500e-01 1.421396e+00 -1.700000e-02
      endloop
   endfacet
   facet normal 9.718294e-01 -2.356856e-01 0.000000e+00
      outer loop
         vertex 2.533500e-01 1.421396e+00 -1.700000e-02
         vertex 2.533500e-01 1.421396e+00 1.700000e-02
         vertex 2.057728e-01 1.225215e+00 1.700000e-02
      endloop
   endfacet
   facet normal 9.718294e-01 -2.356856e-01 0.000000e+00
      outer loop
         vertex 2.533500e-01 1.421396e+00 -1.700000e-02
         vertex 2.057728e-01 1.225215e+00 1.700000e-02
         vertex 2.057728e-01 1.225215e+00 -1.700000e-02
      endloop
   endfacet
   facet normal 9.609055e-01 -2.768764e-01 0.000000e+00
      outer loop
         vertex 2.057728e-01 1.225215e+00 -1.700000e-02
         vertex 2.057728e-01 1.225215e+00 1.700000e-02
         vertex 1.633013e-01 1.077817e+00 1.700000e-02
      endloop
   endfacet
   facet normal 9.609055e-01 -2.768764e-01 0.000000e+00
      outer loop
         vertex 2.057728e-01 1.225215e+00 -1.700000e-02
         vertex 1.633013e-01 1.077817e+00 1.700000e-02
         vertex 1.633013e-01 1.077817e+00 -1.700000e-02
      endloop
   endfacet
   facet normal 9.449774e-01 -3.271357e-01 0.000000e+00
      outer loop
         vertex 1.633013e-01 1.077817e+00 -1.700000e-02
         vertex 1.633013e-01 1.077817e+00 1.700000e-02
         vertex 1.177156e-01 9.461362e-01 1.700000e-02
      endloop
   endfacet
   facet normal 9.449774e-01 -3.271357e-01 0.000000e+00
      outer loop
         vertex 1.633013e-01 1.077817e+00 -1.700000e-02
         vertex 1.177156e-01 9.461362e-01 1.700000e-02
         vertex 1.177156e-01 9.461362e-01 -1.700000e-02
      endloop
   endfacet
   facet normal 9.253772e-01 -3.790474e-01 0.000000e+00
      outer loop
         vertex 1.177156e-01 9.461362e-01 -1.700000e-02
         vertex 1.177156e-01 9.461362e-01 1.700000e-02
         vertex 5.691167e-02 7.976941e-01 1.700000e-02
      endloop
   endfacet
   facet normal 9.253772e-01 -3.790474e-01 0.000000e+00
      outer loop
         vertex 1.177156e-01 9.461362e-01 -1.700000e-02
         vertex 5.691167e-02 7.976941e-01 1.700000e-02
         vertex 5.691167e-02 7.976941e-01 -1.700000e-02
      endloop
   endfacet
   facet normal -2.506281e-03 -9.999969e-01 -0.000000e+00
      outer loop
         vertex -1.024410e+00 8.004042e-01 1.700000e-02
         vertex -1.024410e+00 8.004042e-01 -1.700000e-02
         vertex 5.691167e-02 7.976941e-01 1.700000e-02
      endloop
   endfacet
   facet normal -2.506281e-03 -9.999969e-01 -0.000000e+00
      outer loop
         vertex 5.691167e-02 7.976941e-01 1.700000e-02
         vertex -1.024410e+00 8.004042e-01 -1.700000e-02
         vertex 5.691167e-02 7.976941e-01 -1.700000e-02
      endloop
   endfacet
   facet normal -9.157761e-01 -4.016892e-01 0.000000e+00
      outer loop
         vertex -1.024410e+00 8.004042e-01 -1.700000e-02
         vertex -1.024410e+00 8.004042e-01 1.700000e-02
         vertex -1.045393e+00 8.482409e-01 1.700000e-02
      endloop
   endfacet
   facet normal -9.157761e-01 -4.016892e-01 0.000000e+00
      outer loop
         vertex -1.024410e+00 8.004042e-01 -1.700000e-02
         vertex -1.045393e+00 8.482409e-01 1.700000e-02
         vertex -1.045393e+00 8.482409e-01 -1.700000e-02
      endloop
   endfacet
   facet normal -9.384218e-01 -3.454916e-01 0.000000e+00
      outer loop
         vertex -1.045393e+00 8.482409e-01 -1.700000e-02
         vertex -1.045393e+00 8.482409e-01 1.700000e-02
         vertex -1.080560e+00 9.437609e-01 1.700000e-02
      endloop
   endfacet
   facet normal -9.384218e-01 -3.454916e-01 0.000000e+00
      outer loop
         vertex -1.045393e+00 8.482409e-01 -1.700000e-02
         vertex -1.080560e+00 9.437609e-01 1.700000e-02
         vertex -1.080560e+00 9.437609e-01 -1.700000e-02
      endloop
   endfacet
   facet normal -9.629474e-01 -2.696893e-01 0.000000e+00
      outer loop
         vertex -1.080560e+00 9.437609e-01 -1.700000e-02
         vertex -1.080560e+00 9.437609e-01 1.700000e-02
         vertex -1.110684e+00 1.051323e+00 1.700000e-02
      endloop
   endfacet
   facet normal -9.629474e-01 -2.696893e-01 0.000000e+00
      outer loop
         vertex -1.080560e+00 9.437609e-01 -1.700000e-02
         vertex -1.110684e+00 1.051323e+00 1.700000e-02
         vertex -1.110684e+00 1.051323e+00 -1.700000e-02
      endloop
   endfacet
   facet normal -9.799248e-01 -1.993673e-01 0.000000e+00
      outer loop
         vertex -1.110684e+00 1.051323e+00 -1.700000e-02
         vertex -1.110684e+00 1.051323e+00 1.700000e-02
         vertex -1.132967e+00 1.160849e+00 1.700000e-02
      endloop
   endfacet
   facet normal -9.799248e-01 -1.993673e-01 0.000000e+00
      outer loop
         vertex -1.110684e+00 1.051323e+00 -1.700000e-02
         vertex -1.132967e+00 1.160849e+00 1.700000e-02
         vertex -1.132967e+00 1.160849e+00 -1.700000e-02
      endloop
   endfacet
   facet normal -9.905071e-01 -1.374617e-01 0.000000e+00
      outer loop
         vertex -1.132967e+00 1.160849e+00 -1.700000e-02
         vertex -1.132967e+00 1.160849e+00 1.700000e-02
         vertex -1.149809e+00 1.282203e+00 1.700000e-02
      endloop
   endfacet
   facet normal -9.905071e-01 -1.374617e-01 0.000000e+00
      outer loop
         vertex -1.132967e+00 1.160849e+00 -1.700000e-02
         vertex -1.149809e+00 1.282203e+00 1.700000e-02
         vertex -1.149809e+00 1.282203e+00 -1.700000e-02
      endloop
   endfacet
   facet normal -9.968371e-01 -7.947183e-02 0.000000e+00
      outer loop
         vertex -1.149809e+00 1.282203e+00 -1.700000e-02
         vertex -1.149809e+00 1.282203e+00 1.700000e-02
         vertex -1.161377e+00 1.427306e+00 1.700000e-02
      endloop
   endfacet
   facet normal -9.968371e-01 -7.947183e-02 0.000000e+00
      outer loop
         vertex -1.149809e+00 1.282203e+00 -1.700000e-02
         vertex -1.161377e+00 1.427306e+00 1.700000e-02
         vertex -1.161377e+00 1.427306e+00 -1.700000e-02
      endloop
   endfacet
   facet normal -9.996246e-01 -2.739708e-02 0.000000e+00
      outer loop
         vertex -1.161377e+00 1.427306e+00 -1.700000e-02
         vertex -1.161377e+00 1.427306e+00 1.700000e-02
         vertex -1.165479e+00 1.576973e+00 1.700000e-02
      endloop
   endfacet
   facet normal -9.996246e-01 -2.739708e-02 0.000000e+00
      outer loop
         vertex -1.161377e+00 1.427306e+00 -1.700000e-02
         vertex -1.165479e+00 1.576973e+00 1.700000e-02
         vertex -1.165479e+00 1.576973e+00 -1.700000e-02
      endloop
   endfacet
   facet normal -9.998380e-01 1.800137e-02 0.000000e+00
      outer loop
         vertex -1.165479e+00 1.576973e+00 -1.700000e-02
         vertex -1.165479e+00 1.576973e+00 1.700000e-02
         vertex -1.162534e+00 1.740523e+00 1.700000e-02
      endloop
   endfacet
   facet normal -9.998380e-01 1.800137e-02 0.000000e+00
      outer loop
         vertex -1.165479e+00 1.576973e+00 -1.700000e-02
         vertex -1.162534e+00 1.740523e+00 1.700000e-02
         vertex -1.162534e+00 1.740523e+00 -1.700000e-02
      endloop
   endfacet
   facet normal -9.982715e-01 5.877095e-02 0.000000e+00
      outer loop
         vertex -1.162534e+00 1.740523e+00 -1.700000e-02
         vertex -1.162534e+00 1.740523e+00 1.700000e-02
         vertex -1.152050e+00 1.918601e+00 1.700000e-02
      endloop
   endfacet
   facet normal -9.982715e-01 5.877095e-02 0.000000e+00
      outer loop
         vertex -1.162534e+00 1.740523e+00 -1.700000e-02
         vertex -1.152050e+00 1.918601e+00 1.700000e-02
         vertex -1.152050e+00 1.918601e+00 -1.700000e-02
      endloop
   endfacet
   facet normal -9.955029e-01 9.473060e-02 0.000000e+00
      outer loop
         vertex -1.152050e+00 1.918601e+00 -1.700000e-02
         vertex -1.152050e+00 1.918601e+00 1.700000e-02
         vertex -1.131981e+00 2.129508e+00 1.700000e-02
      endloop
   endfacet
   facet normal -9.955029e-01 9.473060e-02 0.000000e+00
      outer loop
         vertex -1.152050e+00 1.918601e+00 -1.700000e-02
         vertex -1.131981e+00 2.129508e+00 1.700000e-02
         vertex -1.131981e+00 2.129508e+00 -1.700000e-02
      endloop
   endfacet
   facet normal -9.922801e-01 1.240167e-01 0.000000e+00
      outer loop
         vertex -1.131981e+00 2.129508e+00 -1.700000e-02
         vertex -1.131981e+00 2.129508e+00 1.700000e-02
         vertex -1.099071e+00 2.392829e+00 1.700000e-02
      endloop
   endfacet
   facet normal -9.922801e-01 1.240167e-01 0.000000e+00
      outer loop
         vertex -1.131981e+00 2.129508e+00 -1.700000e-02
         vertex -1.099071e+00 2.392829e+00 1.700000e-02
         vertex -1.099071e+00 2.392829e+00 -1.700000e-02
      endloop
   endfacet
   facet normal -9.896047e-01 1.438139e-01 0.000000e+00
      outer loop
         vertex -1.099071e+00 2.392829e+00 -1.700000e-02
         vertex -1.099071e+00 2.392829e+00 1.700000e-02
         vertex -1.079805e+00 2.525399e+00 1.700000e-02
      endloop
   endfacet
   facet normal -9.896047e-01 1.438139e-01 0.000000e+00
      outer loop
         vertex -1.099071e+00 2.392829e+00 -1.700000e-02
         vertex -1.079805e+00 2.525399e+00 1.700000e-02
         vertex -1.079805e+00 2.525399e+00 -1.700000e-02
      endloop
   endfacet
   facet normal -9.855243e-01 1.695340e-01 0.000000e+00
      outer loop
         vertex -1.079805e+00 2.525399e+00 -1.700000e-02
         vertex -1.079805e+00 2.525399e+00 1.700000e-02
         vertex -1.049316e+00 2.702635e+00 1.700000e-02
      endloop
   endfacet
   facet normal -9.855243e-01 1.695340e-01 0.000000e+00
      outer loop
         vertex -1.079805e+00 2.525399e+00 -1.700000e-02
         vertex -1.049316e+00 2.702635e+00 1.700000e-02
         vertex -1.049316e+00 2.702635e+00 -1.700000e-02
      endloop
   endfacet
   facet normal -9.769102e-01 2.136505e-01 0.000000e+00
      outer loop
         vertex -1.049316e+00 2.702635e+00 -1.700000e-02
         vertex -1.049316e+00 2.702635e+00 1.700000e-02
         vertex -1.022199e+00 2.826628e+00 1.700000e-02
      endloop
   endfacet
   facet normal -9.769102e-01 2.136505e-01 0.000000e+00
      outer loop
         vertex -1.049316e+00 2.702635e+00 -1.700000e-02
         vertex -1.022199e+00 2.826628e+00 1.700000e-02
         vertex -1.022199e+00 2.826628e+00 -1.700000e-02
      endloop
   endfacet
   facet normal -9.638439e-01 2.664674e-01 0.000000e+00
      outer loop
         vertex -1.022199e+00 2.826628e+00 -1.700000e-02
         vertex -1.022199e+00 2.826628e+00 1.700000e-02
         vertex -9.902251e-01 2.942280e+00 1.700000e-02
      endloop
   endfacet
   facet normal -9.638439e-01 2.664674e-01 0.000000e+00
      outer loop
         vertex -1.022199e+00 2.826628e+00 -1.700000e-02
         vertex -9.902251e-01 2.942280e+00 1.700000e-02
         vertex -9.902251e-01 2.942280e+00 -1.700000e-02
      endloop
   endfacet
   facet normal -9.446896e-01 3.279657e-01 0.000000e+00
      outer loop
         vertex -9.902251e-01 2.942280e+00 -1.700000e-02
         vertex -9.902251e-01 2.942280e+00 1.700000e-02
         vertex -9.502753e-01 3.057354e+00 1.700000e-02
      endloop
   endfacet
   facet normal -9.446896e-01 3.279657e-01 0.000000e+00
      outer loop
         vertex -9.902251e-01 2.942280e+00 -1.700000e-02
         vertex -9.502753e-01 3.057354e+00 1.700000e-02
         vertex -9.502753e-01 3.057354e+00 -1.700000e-02
      endloop
   endfacet
   facet normal -9.196710e-01 3.926898e-01 0.000000e+00
      outer loop
         vertex -9.502753e-01 3.057354e+00 -1.700000e-02
         vertex -9.502753e-01 3.057354e+00 1.700000e-02
         vertex -8.986154e-01 3.178340e+00 1.700000e-02
      endloop
   endfacet
   facet normal -9.196710e-01 3.926898e-01 0.000000e+00
      outer loop
         vertex -9.502753e-01 3.057354e+00 -1.700000e-02
         vertex -8.986154e-01 3.178340e+00 1.700000e-02
         vertex -8.986154e-01 3.178340e+00 -1.700000e-02
      endloop
   endfacet
   facet normal -8.920897e-01 4.518583e-01 0.000000e+00
      outer loop
         vertex -8.986154e-01 3.178340e+00 -1.700000e-02
         vertex -8.986154e-01 3.178340e+00 1.700000e-02
         vertex -8.347045e-01 3.304518e+00 1.700000e-02
      endloop
   endfacet
   facet normal -8.920897e-01 4.518583e-01 0.000000e+00
      outer loop
         vertex -8.986154e-01 3.178340e+00 -1.700000e-02
         vertex -8.347045e-01 3.304518e+00 1.700000e-02
         vertex -8.347045e-01 3.304518e+00 -1.700000e-02
      endloop
   endfacet
   facet normal 0.000000e+00 0.000000e+00 -1.000000e+00
      outer loop
         vertex -1.152050e+00 1.918601e+00 -1.700000e-02
         vertex -1.131981e+00 2.129508e+00 -1.700000e-02
         vertex 3.523804e-01 2.005324e+00 -1.700000e-02
      endloop
   endfacet
   facet normal -0.000000e+00 -0.000000e+00 -1.000000e+00
      outer loop
         vertex 3.531885e-01 2.772807e+00 -1.700000e-02
         vertex 3.685652e-01 2.626299e+00 -1.700000e-02
         vertex -7.989855e-01 3.367908e+00 -1.700000e-02
      endloop
   endfacet
   facet normal 0.000000e+00 -0.000000e+00 -1.000000e+00
      outer loop
         vertex -7.989855e-01 3.367908e+00 -1.700000e-02
         vertex 3.685652e-01 2.626299e+00 -1.700000e-02
         vertex -8.347045e-01 3.304518e+00 -1.700000e-02
      endloop
   endfacet
   facet normal 0.000000e+00 0.000000e+00 -1.000000e+00
      outer loop
         vertex 3.523804e-01 2.005324e+00 -1.700000e-02
         vertex -1.131981e+00 2.129508e+00 -1.700000e-02
         vertex 3.676927e-01 2.175989e+00 -1.700000e-02
      endloop
   endfacet
   facet normal -0.000000e+00 0.000000e+00 -1.000000e+00
      outer loop
         vertex 3.676927e-01 2.175989e+00 -1.700000e-02
         vertex -1.131981e+00 2.129508e+00 -1.700000e-02
         vertex -1.099071e+00 2.392829e+00 -1.700000e-02
      endloop
   endfacet
   facet normal 0.000000e+00 0.000000e+00 -1.000000e+00
      outer loop
         vertex 3.676927e-01 2.175989e+00 -1.700000e-02
         vertex -1.099071e+00 2.392829e+00 -1.700000e-02
         vertex 3.751641e-01 2.334322e+00 -1.700000e-02
      endloop
   endfacet
   facet normal 0.000000e+00 0.000000e+00 -1.000000e+00
      outer loop
         vertex 3.751641e-01 2.334322e+00 -1.700000e-02
         vertex -1.099071e+00 2.392829e+00 -1.700000e-02
         vertex -1.079805e+00 2.525399e+00 -1.700000e-02
      endloop
   endfacet
   facet normal 0.000000e+00 0.000000e+00 -1.000000e+00
      outer loop
         vertex 3.751641e-01 2.334322e+00 -1.700000e-02
         vertex -1.079805e+00 2.525399e+00 -1.700000e-02
         vertex 3.753821e-01 2.485090e+00 -1.700000e-02
      endloop
   endfacet
   facet normal 0.000000e+00 0.000000e+00 -1.000000e+00
      outer loop
         vertex 3.753821e-01 2.485090e+00 -1.700000e-02
         vertex -1.079805e+00 2.525399e+00 -1.700000e-02
         vertex -1.049316e+00 2.702635e+00 -1.700000e-02
      endloop
   endfacet
   facet normal 0.000000e+00 0.000000e+00 -1.000000e+00
      outer loop
         vertex 3.753821e-01 2.485090e+00 -1.700000e-02
         vertex -1.049316e+00 2.702635e+00 -1.700000e-02
         vertex -1.022199e+00 2.826628e+00 -1.700000e-02
      endloop
   endfacet
   facet normal 0.000000e+00 0.000000e+00 -1.000000e+00
      outer loop
         vertex 3.523804e-01 2.005324e+00 -1.700000e-02
         vertex 3.290589e-01 1.825569e+00 -1.700000e-02
         vertex -1.152050e+00 1.918601e+00 -1.700000e-02
      endloop
   endfacet
   facet normal 0.000000e+00 0.000000e+00 -1.000000e+00
      outer loop
         vertex -1.152050e+00 1.918601e+00 -1.700000e-02
         vertex 3.290589e-01 1.825569e+00 -1.700000e-02
         vertex 2.977349e-01 1.638315e+00 -1.700000e-02
      endloop
   endfacet
   facet normal 0.000000e+00 -0.000000e+00 -1.000000e+00
      outer loop
         vertex -1.152050e+00 1.918601e+00 -1.700000e-02
         vertex 2.977349e-01 1.638315e+00 -1.700000e-02
         vertex -1.162534e+00 1.740523e+00 -1.700000e-02
      endloop
   endfacet
   facet normal 0.000000e+00 0.000000e+00 -1.000000e+00
      outer loop
         vertex -1.162534e+00 1.740523e+00 -1.700000e-02
         vertex 2.977349e-01 1.638315e+00 -1.700000e-02
         vertex 2.533500e-01 1.421396e+00 -1.700000e-02
      endloop
   endfacet
   facet normal 0.000000e+00 -0.000000e+00 -1.000000e+00
      outer loop
         vertex -1.162534e+00 1.740523e+00 -1.700000e-02
         vertex 2.533500e-01 1.421396e+00 -1.700000e-02
         vertex -1.165479e+00 1.576973e+00 -1.700000e-02
      endloop
   endfacet
   facet normal 0.000000e+00 0.000000e+00 -1.000000e+00
      outer loop
         vertex -1.165479e+00 1.576973e+00 -1.700000e-02
         vertex 2.533500e-01 1.421396e+00 -1.700000e-02
         vertex 2.057728e-01 1.225215e+00 -1.700000e-02
      endloop
   endfacet
   facet normal 0.000000e+00 0.000000e+00 -1.000000e+00
      outer loop
         vertex -1.165479e+00 1.576973e+00 -1.700000e-02
         vertex 2.057728e-01 1.225215e+00 -1.700000e-02
         vertex -1.161377e+00 1.427306e+00 -1.700000e-02
      endloop
   endfacet
   facet normal 0.000000e+00 0.000000e+00 -1.000000e+00
      outer loop
         vertex -7.989855e-01 3.367908e+00 -1.700000e-02
         vertex 7.910594e-02 3.534616e+00 -1.700000e-02
         vertex 1.327939e-01 3.458992e+00 -1.700000e-02
      endloop
   endfacet
   facet normal 0.000000e+00 0.000000e+00 -1.000000e+00
      outer loop
         vertex -1.022199e+00 2.826628e+00 -1.700000e-02
         vertex -9.902251e-01 2.942280e+00 -1.700000e-02
         vertex 3.753821e-01 2.485090e+00 -1.700000e-02
      endloop
   endfacet
   facet normal 0.000000e+00 0.000000e+00 -1.000000e+00
      outer loop
         vertex 3.753821e-01 2.485090e+00 -1.700000e-02
         vertex -9.902251e-01 2.942280e+00 -1.700000e-02
         vertex -9.502753e-01 3.057354e+00 -1.700000e-02
      endloop
   endfacet
   facet normal 0.000000e+00 0.000000e+00 -1.000000e+00
      outer loop
         vertex 3.753821e-01 2.485090e+00 -1.700000e-02
         vertex -9.502753e-01 3.057354e+00 -1.700000e-02
         vertex 3.685652e-01 2.626299e+00 -1.700000e-02
      endloop
   endfacet
   facet normal 0.000000e+00 0.000000e+00 -1.000000e+00
      outer loop
         vertex 3.685652e-01 2.626299e+00 -1.700000e-02
         vertex -9.502753e-01 3.057354e+00 -1.700000e-02
         vertex -8.986154e-01 3.178340e+00 -1.700000e-02
      endloop
   endfacet
   facet normal 0.000000e+00 0.000000e+00 -1.000000e+00
      outer loop
         vertex 3.685652e-01 2.626299e+00 -1.700000e-02
         vertex -8.986154e-01 3.178340e+00 -1.700000e-02
         vertex -8.347045e-01 3.304518e+00 -1.700000e-02
      endloop
   endfacet
   facet normal 0.000000e+00 0.000000e+00 -1.000000e+00
      outer loop
         vertex 7.910594e-02 3.534616e+00 -1.700000e-02
         vertex -4.874767e-01 3.673537e+00 -1.700000e-02
         vertex 3.241328e-02 3.590416e+00 -1.700000e-02
      endloop
   endfacet
   facet normal 0.000000e+00 0.000000e+00 -1.000000e+00
      outer loop
         vertex 3.241328e-02 3.590416e+00 -1.700000e-02
         vertex -4.874767e-01 3.673537e+00 -1.700000e-02
         vertex -4.132843e-01 3.705738e+00 -1.700000e-02
      endloop
   endfacet
   facet normal 0.000000e+00 0.000000e+00 -1.000000e+00
      outer loop
         vertex 3.241328e-02 3.590416e+00 -1.700000e-02
         vertex -4.132843e-01 3.705738e+00 -1.700000e-02
         vertex -1.348498e-02 3.635462e+00 -1.700000e-02
      endloop
   endfacet
   facet normal 0.000000e+00 -0.000000e+00 -1.000000e+00
      outer loop
         vertex 1.327939e-01 3.458992e+00 -1.700000e-02
         vertex 1.778357e-01 3.368414e+00 -1.700000e-02
         vertex -7.989855e-01 3.367908e+00 -1.700000e-02
      endloop
   endfacet
   facet normal 0.000000e+00 0.000000e+00 -1.000000e+00
      outer loop
         vertex -7.989855e-01 3.367908e+00 -1.700000e-02
         vertex 1.778357e-01 3.368414e+00 -1.700000e-02
         vertex 2.281330e-01 3.251570e+00 -1.700000e-02
      endloop
   endfacet
   facet normal 0.000000e+00 0.000000e+00 -1.000000e+00
      outer loop
         vertex -7.989855e-01 3.367908e+00 -1.700000e-02
         vertex 2.281330e-01 3.251570e+00 -1.700000e-02
         vertex 2.706586e-01 3.134136e+00 -1.700000e-02
      endloop
   endfacet
   facet normal -0.000000e+00 0.000000e+00 -1.000000e+00
      outer loop
         vertex 2.057728e-01 1.225215e+00 -1.700000e-02
         vertex 1.633013e-01 1.077817e+00 -1.700000e-02
         vertex -1.161377e+00 1.427306e+00 -1.700000e-02
      endloop
   endfacet
   facet normal 0.000000e+00 0.000000e+00 -1.000000e+00
      outer loop
         vertex -1.161377e+00 1.427306e+00 -1.700000e-02
         vertex 1.633013e-01 1.077817e+00 -1.700000e-02
         vertex 1.177156e-01 9.461362e-01 -1.700000e-02
      endloop
   endfacet
   facet normal 0.000000e+00 0.000000e+00 -1.000000e+00
      outer loop
         vertex -1.161377e+00 1.427306e+00 -1.700000e-02
         vertex 1.177156e-01 9.461362e-01 -1.700000e-02
         vertex -1.149809e+00 1.282203e+00 -1.700000e-02
      endloop
   endfacet
   facet normal 0.000000e+00 0.000000e+00 -1.000000e+00
      outer loop
         vertex -1.149809e+00 1.282203e+00 -1.700000e-02
         vertex 1.177156e-01 9.461362e-01 -1.700000e-02
         vertex -1.132967e+00 1.160849e+00 -1.700000e-02
      endloop
   endfacet
   facet normal -0.000000e+00 -0.000000e+00 -1.000000e+00
      outer loop
         vertex 2.706586e-01 3.134136e+00 -1.700000e-02
         vertex 3.061965e-01 3.012913e+00 -1.700000e-02
         vertex -7.989855e-01 3.367908e+00 -1.700000e-02
      endloop
   endfacet
   facet normal 0.000000e+00 0.000000e+00 -1.000000e+00
      outer loop
         vertex -7.989855e-01 3.367908e+00 -1.700000e-02
         vertex 3.061965e-01 3.012913e+00 -1.700000e-02
         vertex 3.348320e-01 2.885227e+00 -1.700000e-02
      endloop
   endfacet
   facet normal 0.000000e+00 0.000000e+00 -1.000000e+00
      outer loop
         vertex -7.989855e-01 3.367908e+00 -1.700000e-02
         vertex 3.348320e-01 2.885227e+00 -1.700000e-02
         vertex 3.531885e-01 2.772807e+00 -1.700000e-02
      endloop
   endfacet
   facet normal 0.000000e+00 0.000000e+00 -1.000000e+00
      outer loop
         vertex -7.989855e-01 3.367908e+00 -1.700000e-02
         vertex -7.465077e-01 3.451563e+00 -1.700000e-02
         vertex 7.910594e-02 3.534616e+00 -1.700000e-02
      endloop
   endfacet
   facet normal 0.000000e+00 0.000000e+00 -1.000000e+00
      outer loop
         vertex 7.910594e-02 3.534616e+00 -1.700000e-02
         vertex -7.465077e-01 3.451563e+00 -1.700000e-02
         vertex -7.035837e-01 3.509143e+00 -1.700000e-02
      endloop
   endfacet
   facet normal -0.000000e+00 0.000000e+00 -1.000000e+00
      outer loop
         vertex 7.910594e-02 3.534616e+00 -1.700000e-02
         vertex -7.035837e-01 3.509143e+00 -1.700000e-02
         vertex -6.606464e-01 3.556787e+00 -1.700000e-02
      endloop
   endfacet
   facet normal 0.000000e+00 0.000000e+00 -1.000000e+00
      outer loop
         vertex 5.691167e-02 7.976941e-01 -1.700000e-02
         vertex -1.024410e+00 8.004042e-01 -1.700000e-02
         vertex 1.177156e-01 9.461362e-01 -1.700000e-02
      endloop
   endfacet
   facet normal 0.000000e+00 0.000000e+00 -1.000000e+00
      outer loop
         vertex 1.177156e-01 9.461362e-01 -1.700000e-02
         vertex -1.024410e+00 8.004042e-01 -1.700000e-02
         vertex -1.045393e+00 8.482409e-01 -1.700000e-02
      endloop
   endfacet
   facet normal 0.000000e+00 0.000000e+00 -1.000000e+00
      outer loop
         vertex -6.606464e-01 3.556787e+00 -1.700000e-02
         vertex -6.113023e-01 3.600219e+00 -1.700000e-02
         vertex 7.910594e-02 3.534616e+00 -1.700000e-02
      endloop
   endfacet
   facet normal 0.000000e+00 0.000000e+00 -1.000000e+00
      outer loop
         vertex 7.910594e-02 3.534616e+00 -1.700000e-02
         vertex -6.113023e-01 3.600219e+00 -1.700000e-02
         vertex -5.607550e-01 3.634484e+00 -1.700000e-02
      endloop
   endfacet
   facet normal 0.000000e+00 0.000000e+00 -1.000000e+00
      outer loop
         vertex 7.910594e-02 3.534616e+00 -1.700000e-02
         vertex -5.607550e-01 3.634484e+00 -1.700000e-02
         vertex -4.874767e-01 3.673537e+00 -1.700000e-02
      endloop
   endfacet
   facet normal 0.000000e+00 0.000000e+00 -1.000000e+00
      outer loop
         vertex -1.045393e+00 8.482409e-01 -1.700000e-02
         vertex -1.080560e+00 9.437609e-01 -1.700000e-02
         vertex 1.177156e-01 9.461362e-01 -1.700000e-02
      endloop
   endfacet
   facet normal -0.000000e+00 0.000000e+00 -1.000000e+00
      outer loop
         vertex 1.177156e-01 9.461362e-01 -1.700000e-02
         vertex -1.080560e+00 9.437609e-01 -1.700000e-02
         vertex -1.110684e+00 1.051323e+00 -1.700000e-02
      endloop
   endfacet
   facet normal 0.000000e+00 0.000000e+00 -1.000000e+00
      outer loop
         vertex 1.177156e-01 9.461362e-01 -1.700000e-02
         vertex -1.110684e+00 1.051323e+00 -1.700000e-02
         vertex -1.132967e+00 1.160849e+00 -1.700000e-02
      endloop
   endfacet
   facet normal 0.000000e+00 0.000000e+00 -1.000000e+00
      outer loop
         vertex -1.348498e-02 3.635462e+00 -1.700000e-02
         vertex -4.132843e-01 3.705738e+00 -1.700000e-02
         vertex -5.938528e-02 3.671194e+00 -1.700000e-02
      endloop
   endfacet
   facet normal 0.000000e+00 0.000000e+00 -1.000000e+00
      outer loop
         vertex -5.938528e-02 3.671194e+00 -1.700000e-02
         vertex -4.132843e-01 3.705738e+00 -1.700000e-02
         vertex -3.562037e-01 3.723851e+00 -1.700000e-02
      endloop
   endfacet
   facet normal 0.000000e+00 0.000000e+00 -1.000000e+00
      outer loop
         vertex -5.938528e-02 3.671194e+00 -1.700000e-02
         vertex -3.562037e-01 3.723851e+00 -1.700000e-02
         vertex -1.042904e-01 3.697922e+00 -1.700000e-02
      endloop
   endfacet
   facet normal 0.000000e+00 0.000000e+00 -1.000000e+00
      outer loop
         vertex -1.042904e-01 3.697922e+00 -1.700000e-02
         vertex -3.562037e-01 3.723851e+00 -1.700000e-02
         vertex -3.021092e-01 3.733741e+00 -1.700000e-02
      endloop
   endfacet
   facet normal 0.000000e+00 0.000000e+00 -1.000000e+00
      outer loop
         vertex -1.042904e-01 3.697922e+00 -1.700000e-02
         vertex -3.021092e-01 3.733741e+00 -1.700000e-02
         vertex -1.517839e-01 3.718232e+00 -1.700000e-02
      endloop
   endfacet
   facet normal 0.000000e+00 0.000000e+00 -1.000000e+00
      outer loop
         vertex -1.517839e-01 3.718232e+00 -1.700000e-02
         vertex -3.021092e-01 3.733741e+00 -1.700000e-02
         vertex -2.500649e-01 3.736028e+00 -1.700000e-02
      endloop
   endfacet
   facet normal 0.000000e+00 0.000000e+00 -1.000000e+00
      outer loop
         vertex -1.517839e-01 3.718232e+00 -1.700000e-02
         vertex -2.500649e-01 3.736028e+00 -1.700000e-02
         vertex -1.988258e-01 3.730707e+00 -1.700000e-02
      endloop
   endfacet
   facet normal 0.000000e+00 -0.000000e+00 1.000000e+00
      outer loop
         vertex 2.977349e-01 1.638315e+00 1.700000e-02
         vertex 3.290589e-01 1.825569e+00 1.700000e-02
         vertex -1.152050e+00 1.918601e+00 1.700000e-02
      endloop
   endfacet
   facet normal 0.000000e+00 0.000000e+00 1.000000e+00
      outer loop
         vertex 2.281330e-01 3.251570e+00 1.700000e-02
         vertex 1.778357e-01 3.368414e+00 1.700000e-02
         vertex -7.989855e-01 3.367908e+00 1.700000e-02
      endloop
   endfacet
   facet normal -0.000000e+00 0.000000e+00 1.000000e+00
      outer loop
         vertex -1.152050e+00 1.918601e+00 1.700000e-02
         vertex 3.290589e-01 1.825569e+00 1.700000e-02
         vertex -1.131981e+00 2.129508e+00 1.700000e-02
      endloop
   endfacet
   facet normal 0.000000e+00 0.000000e+00 1.000000e+00
      outer loop
         vertex -1.131981e+00 2.129508e+00 1.700000e-02
         vertex 3.290589e-01 1.825569e+00 1.700000e-02
         vertex 3.523804e-01 2.005324e+00 1.700000e-02
      endloop
   endfacet
   facet normal -0.000000e+00 0.000000e+00 1.000000e+00
      outer loop
         vertex -1.131981e+00 2.129508e+00 1.700000e-02
         vertex 3.523804e-01 2.005324e+00 1.700000e-02
         vertex -1.099071e+00 2.392829e+00 1.700000e-02
      endloop
   endfacet
   facet normal 0.000000e+00 0.000000e+00 1.000000e+00
      outer loop
         vertex -1.099071e+00 2.392829e+00 1.700000e-02
         vertex 3.523804e-01 2.005324e+00 1.700000e-02
         vertex 3.676927e-01 2.175989e+00 1.700000e-02
      endloop
   endfacet
   facet normal -0.000000e+00 0.000000e+00 1.000000e+00
      outer loop
         vertex -1.099071e+00 2.392829e+00 1.700000e-02
         vertex 3.676927e-01 2.175989e+00 1.700000e-02
         vertex -1.079805e+00 2.525399e+00 1.700000e-02
      endloop
   endfacet
   facet normal 0.000000e+00 0.000000e+00 1.000000e+00
      outer loop
         vertex -1.079805e+00 2.525399e+00 1.700000e-02
         vertex 3.676927e-01 2.175989e+00 1.700000e-02
         vertex 3.751641e-01 2.334322e+00 1.700000e-02
      endloop
   endfacet
   facet normal -0.000000e+00 0.000000e+00 1.000000e+00
      outer loop
         vertex -1.079805e+00 2.525399e+00 1.700000e-02
         vertex 3.751641e-01 2.334322e+00 1.700000e-02
         vertex -1.049316e+00 2.702635e+00 1.700000e-02
      endloop
   endfacet
   facet normal 0.000000e+00 0.000000e+00 1.000000e+00
      outer loop
         vertex -1.049316e+00 2.702635e+00 1.700000e-02
         vertex 3.751641e-01 2.334322e+00 1.700000e-02
         vertex 3.753821e-01 2.485090e+00 1.700000e-02
      endloop
   endfacet
   facet normal -0.000000e+00 0.000000e+00 1.000000e+00
      outer loop
         vertex -1.049316e+00 2.702635e+00 1.700000e-02
         vertex 3.753821e-01 2.485090e+00 1.700000e-02
         vertex -1.022199e+00 2.826628e+00 1.700000e-02
      endloop
   endfacet
   facet normal 0.000000e+00 0.000000e+00 1.000000e+00
      outer loop
         vertex 2.977349e-01 1.638315e+00 1.700000e-02
         vertex -1.152050e+00 1.918601e+00 1.700000e-02
         vertex 2.533500e-01 1.421396e+00 1.700000e-02
      endloop
   endfacet
   facet normal 0.000000e+00 0.000000e+00 1.000000e+00
      outer loop
         vertex 2.533500e-01 1.421396e+00 1.700000e-02
         vertex -1.152050e+00 1.918601e+00 1.700000e-02
         vertex -1.162534e+00 1.740523e+00 1.700000e-02
      endloop
   endfacet
   facet normal 0.000000e+00 0.000000e+00 1.000000e+00
      outer loop
         vertex 2.533500e-01 1.421396e+00 1.700000e-02
         vertex -1.162534e+00 1.740523e+00 1.700000e-02
         vertex 2.057728e-01 1.225215e+00 1.700000e-02
      endloop
   endfacet
   facet normal -0.000000e+00 0.000000e+00 1.000000e+00
      outer loop
         vertex -8.347045e-01 3.304518e+00 1.700000e-02
         vertex 3.685652e-01 2.626299e+00 1.700000e-02
         vertex -7.989855e-01 3.367908e+00 1.700000e-02
      endloop
   endfacet
   facet normal 0.000000e+00 0.000000e+00 1.000000e+00
      outer loop
         vertex -7.989855e-01 3.367908e+00 1.700000e-02
         vertex 3.685652e-01 2.626299e+00 1.700000e-02
         vertex 3.531885e-01 2.772807e+00 1.700000e-02
      endloop
   endfacet
   facet normal 0.000000e+00 0.000000e+00 1.000000e+00
      outer loop
         vertex -7.989855e-01 3.367908e+00 1.700000e-02
         vertex 3.531885e-01 2.772807e+00 1.700000e-02
         vertex 3.348320e-01 2.885227e+00 1.700000e-02
      endloop
   endfacet
   facet normal 0.000000e+00 0.000000e+00 1.000000e+00
      outer loop
         vertex 1.778357e-01 3.368414e+00 1.700000e-02
         vertex 1.327939e-01 3.458992e+00 1.700000e-02
         vertex -7.989855e-01 3.367908e+00 1.700000e-02
      endloop
   endfacet
   facet normal 0.000000e+00 0.000000e+00 1.000000e+00
      outer loop
         vertex -7.989855e-01 3.367908e+00 1.700000e-02
         vertex 1.327939e-01 3.458992e+00 1.700000e-02
         vertex 7.910594e-02 3.534616e+00 1.700000e-02
      endloop
   endfacet
   facet normal 0.000000e+00 0.000000e+00 1.000000e+00
      outer loop
         vertex -7.989855e-01 3.367908e+00 1.700000e-02
         vertex 7.910594e-02 3.534616e+00 1.700000e-02
         vertex -7.465077e-01 3.451563e+00 1.700000e-02
      endloop
   endfacet
   facet normal 0.000000e+00 0.000000e+00 1.000000e+00
      outer loop
         vertex -4.132843e-01 3.705738e+00 1.700000e-02
         vertex -4.874767e-01 3.673537e+00 1.700000e-02
         vertex 3.241328e-02 3.590416e+00 1.700000e-02
      endloop
   endfacet
   facet normal 0.000000e+00 0.000000e+00 1.000000e+00
      outer loop
         vertex -8.347045e-01 3.304518e+00 1.700000e-02
         vertex -8.986154e-01 3.178340e+00 1.700000e-02
         vertex 3.685652e-01 2.626299e+00 1.700000e-02
      endloop
   endfacet
   facet normal 0.000000e+00 0.000000e+00 1.000000e+00
      outer loop
         vertex 3.685652e-01 2.626299e+00 1.700000e-02
         vertex -8.986154e-01 3.178340e+00 1.700000e-02
         vertex -9.502753e-01 3.057354e+00 1.700000e-02
      endloop
   endfacet
   facet normal 0.000000e+00 0.000000e+00 1.000000e+00
      outer loop
         vertex 3.685652e-01 2.626299e+00 1.700000e-02
         vertex -9.502753e-01 3.057354e+00 1.700000e-02
         vertex 3.753821e-01 2.485090e+00 1.700000e-02
      endloop
   endfacet
   facet normal 0.000000e+00 0.000000e+00 1.000000e+00
      outer loop
         vertex 3.753821e-01 2.485090e+00 1.700000e-02
         vertex -9.502753e-01 3.057354e+00 1.700000e-02
         vertex -9.902251e-01 2.942280e+00 1.700000e-02
      endloop
   endfacet
   facet normal 0.000000e+00 0.000000e+00 1.000000e+00
      outer loop
         vertex 3.753821e-01 2.485090e+00 1.700000e-02
         vertex -9.902251e-01 2.942280e+00 1.700000e-02
         vertex -1.022199e+00 2.826628e+00 1.700000e-02
      endloop
   endfacet
   facet normal 0.000000e+00 0.000000e+00 1.000000e+00
      outer loop
         vertex -1.162534e+00 1.740523e+00 1.700000e-02
         vertex -1.165479e+00 1.576973e+00 1.700000e-02
         vertex 2.057728e-01 1.225215e+00 1.700000e-02
      endloop
   endfacet
   facet normal 0.000000e+00 0.000000e+00 1.000000e+00
      outer loop
         vertex 2.057728e-01 1.225215e+00 1.700000e-02
         vertex -1.165479e+00 1.576973e+00 1.700000e-02
         vertex -1.161377e+00 1.427306e+00 1.700000e-02
      endloop
   endfacet
   facet normal 0.000000e+00 0.000000e+00 1.000000e+00
      outer loop
         vertex 2.057728e-01 1.225215e+00 1.700000e-02
         vertex -1.161377e+00 1.427306e+00 1.700000e-02
         vertex 1.633013e-01 1.077817e+00 1.700000e-02
      endloop
   endfacet
   facet normal 0.000000e+00 0.000000e+00 1.000000e+00
      outer loop
         vertex 1.633013e-01 1.077817e+00 1.700000e-02
         vertex -1.161377e+00 1.427306e+00 1.700000e-02
         vertex 1.177156e-01 9.461362e-01 1.700000e-02
      endloop
   endfacet
   facet normal 0.000000e+00 0.000000e+00 1.000000e+00
      outer loop
         vertex 3.348320e-01 2.885227e+00 1.700000e-02
         vertex 3.061965e-01 3.012913e+00 1.700000e-02
         vertex -7.989855e-01 3.367908e+00 1.700000e-02
      endloop
   endfacet
   facet normal 0.000000e+00 0.000000e+00 1.000000e+00
      outer loop
         vertex -7.989855e-01 3.367908e+00 1.700000e-02
         vertex 3.061965e-01 3.012913e+00 1.700000e-02
         vertex 2.706586e-01 3.134136e+00 1.700000e-02
      endloop
   endfacet
   facet normal 0.000000e+00 0.000000e+00 1.000000e+00
      outer loop
         vertex -7.989855e-01 3.367908e+00 1.700000e-02
         vertex 2.706586e-01 3.134136e+00 1.700000e-02
         vertex 2.281330e-01 3.251570e+00 1.700000e-02
      endloop
   endfacet
   facet normal 0.000000e+00 0.000000e+00 1.000000e+00
      outer loop
         vertex -6.113023e-01 3.600219e+00 1.700000e-02
         vertex -6.606464e-01 3.556787e+00 1.700000e-02
         vertex 7.910594e-02 3.534616e+00 1.700000e-02
      endloop
   endfacet
   facet normal 0.000000e+00 0.000000e+00 1.000000e+00
      outer loop
         vertex 7.910594e-02 3.534616e+00 1.700000e-02
         vertex -6.606464e-01 3.556787e+00 1.700000e-02
         vertex -7.035837e-01 3.509143e+00 1.700000e-02
      endloop
   endfacet
   facet normal 0.000000e+00 0.000000e+00 1.000000e+00
      outer loop
         vertex 7.910594e-02 3.534616e+00 1.700000e-02
         vertex -7.035837e-01 3.509143e+00 1.700000e-02
         vertex -7.465077e-01 3.451563e+00 1.700000e-02
      endloop
   endfacet
   facet normal 0.000000e+00 0.000000e+00 1.000000e+00
      outer loop
         vertex 3.241328e-02 3.590416e+00 1.700000e-02
         vertex -4.874767e-01 3.673537e+00 1.700000e-02
         vertex 7.910594e-02 3.534616e+00 1.700000e-02
      endloop
   endfacet
   facet normal 0.000000e+00 0.000000e+00 1.000000e+00
      outer loop
         vertex 7.910594e-02 3.534616e+00 1.700000e-02
         vertex -4.874767e-01 3.673537e+00 1.700000e-02
         vertex -5.607550e-01 3.634484e+00 1.700000e-02
      endloop
   endfacet
   facet normal 0.000000e+00 0.000000e+00 1.000000e+00
      outer loop
         vertex 7.910594e-02 3.534616e+00 1.700000e-02
         vertex -5.607550e-01 3.634484e+00 1.700000e-02
         vertex -6.113023e-01 3.600219e+00 1.700000e-02
      endloop
   endfacet
   facet normal 0.000000e+00 0.000000e+00 1.000000e+00
      outer loop
         vertex -1.161377e+00 1.427306e+00 1.700000e-02
         vertex -1.149809e+00 1.282203e+00 1.700000e-02
         vertex 1.177156e-01 9.461362e-01 1.700000e-02
      endloop
   endfacet
   facet normal 0.000000e+00 0.000000e+00 1.000000e+00
      outer loop
         vertex 1.177156e-01 9.461362e-01 1.700000e-02
         vertex -1.149809e+00 1.282203e+00 1.700000e-02
         vertex -1.132967e+00 1.160849e+00 1.700000e-02
      endloop
   endfacet
   facet normal 0.000000e+00 0.000000e+00 1.000000e+00
      outer loop
         vertex 1.177156e-01 9.461362e-01 1.700000e-02
         vertex -1.132967e+00 1.160849e+00 1.700000e-02
         vertex -1.110684e+00 1.051323e+00 1.700000e-02
      endloop
   endfacet
   facet normal -0.000000e+00 -0.000000e+00 1.000000e+00
      outer loop
         vertex -1.024410e+00 8.004042e-01 1.700000e-02
         vertex 5.691167e-02 7.976941e-01 1.700000e-02
         vertex -1.045393e+00 8.482409e-01 1.700000e-02
      endloop
   endfacet
   facet normal -0.000000e+00 0.000000e+00 1.000000e+00
      outer loop
         vertex -1.045393e+00 8.482409e-01 1.700000e-02
         vertex 5.691167e-02 7.976941e-01 1.700000e-02
         vertex 1.177156e-01 9.461362e-01 1.700000e-02
      endloop
   endfacet
   facet normal 0.000000e+00 -0.000000e+00 1.000000e+00
      outer loop
         vertex -1.045393e+00 8.482409e-01 1.700000e-02
         vertex 1.177156e-01 9.461362e-01 1.700000e-02
         vertex -1.080560e+00 9.437609e-01 1.700000e-02
      endloop
   endfacet
   facet normal 0.000000e+00 -0.000000e+00 1.000000e+00
      outer loop
         vertex -1.080560e+00 9.437609e-01 1.700000e-02
         vertex 1.177156e-01 9.461362e-01 1.700000e-02
         vertex -1.110684e+00 1.051323e+00 1.700000e-02
      endloop
   endfacet
   facet normal 0.000000e+00 0.000000e+00 1.000000e+00
      outer loop
         vertex 3.241328e-02 3.590416e+00 1.700000e-02
         vertex -1.348498e-02 3.635462e+00 1.700000e-02
         vertex -4.132843e-01 3.705738e+00 1.700000e-02
      endloop
   endfacet
   facet normal 0.000000e+00 0.000000e+00 1.000000e+00
      outer loop
         vertex -4.132843e-01 3.705738e+00 1.700000e-02
         vertex -1.348498e-02 3.635462e+00 1.700000e-02
         vertex -5.938528e-02 3.671194e+00 1.700000e-02
      endloop
   endfacet
   facet normal -0.000000e+00 0.000000e+00 1.000000e+00
      outer loop
         vertex -4.132843e-01 3.705738e+00 1.700000e-02
         vertex -5.938528e-02 3.671194e+00 1.700000e-02
         vertex -3.562037e-01 3.723851e+00 1.700000e-02
      endloop
   endfacet
   facet normal 0.000000e+00 0.000000e+00 1.000000e+00
      outer loop
         vertex -3.562037e-01 3.723851e+00 1.700000e-02
         vertex -5.938528e-02 3.671194e+00 1.700000e-02
         vertex -1.042904e-01 3.697922e+00 1.700000e-02
      endloop
   endfacet
   facet normal -0.000000e+00 0.000000e+00 1.000000e+00
      outer loop
         vertex -3.562037e-01 3.723851e+00 1.700000e-02
         vertex -1.042904e-01 3.697922e+00 1.700000e-02
         vertex -3.021092e-01 3.733741e+00 1.700000e-02
      endloop
   endfacet
   facet normal 0.000000e+00 0.000000e+00 1.000000e+00
      outer loop
         vertex -3.021092e-01 3.733741e+00 1.700000e-02
         vertex -1.042904e-01 3.697922e+00 1.700000e-02
         vertex -1.517839e-01 3.718232e+00 1.700000e-02
      endloop
   endfacet
   facet normal -0.000000e+00 0.000000e+00 1.000000e+00
      outer loop
         vertex -3.021092e-01 3.733741e+00 1.700000e-02
         vertex -1.517839e-01 3.718232e+00 1.700000e-02
         vertex -2.500649e-01 3.736028e+00 1.700000e-02
      endloop
   endfacet
   facet normal 0.000000e+00 0.000000e+00 1.000000e+00
      outer loop
         vertex -2.500649e-01 3.736028e+00 1.700000e-02
         vertex -1.517839e-01 3.718232e+00 1.700000e-02
         vertex -1.988258e-01 3.730707e+00 1.700000e-02
      endloop
   endfacet
endsolid