solid wing
   facet normal -0.000000e+00 1.000000e+00 0.000000e+00
      outer loop
         vertex 4.000000e-01 1.600000e-01 5.000000e-02
         vertex 2.400000e+00 1.600000e-01 5.000000e-02
         vertex 4.000000e-01 1.600000e-01 -5.000000e-02
      endloop
   endfacet
   facet normal 0.000000e+00 1.000000e+00 0.000000e+00
      outer loop
         vertex 4.000000e-01 1.600000e-01 -5.000000e-02
         vertex 2.400000e+00 1.600000e-01 5.000000e-02
         vertex 2.400000e+00 1.600000e-01 -5.000000e-02
      endloop
   endfacet
   facet normal 0.000000e+00 0.000000e+00 1.000000e+00
      outer loop
         vertex 4.000000e-01 -8.400000e-01 5.000000e-02
         vertex 2.400000e+00 -8.400000e-01 5.000000e-02
         vertex 4.000000e-01 1.600000e-01 5.000000e-02
      endloop
   endfacet
   facet normal -0.000000e+00 0.000000e+00 1.000000e+00
      outer loop
         vertex 4.000000e-01 1.600000e-01 5.000000e-02
         vertex 2.400000e+00 -8.400000e-01 5.000000e-02
         vertex 2.400000e+00 1.600000e-01 5.000000e-02
      endloop
   endfacet
   facet normal 0.000000e+00 -1.000000e+00 0.000000e+00
      outer loop
         vertex 2.400000e+00 -8.400000e-01 -5.000000e-02
         vertex 2.400000e+00 -8.400000e-01 5.000000e-02
         vertex 4.000000e-01 -8.400000e-01 -5.000000e-02
      endloop
   endfacet
   facet normal 0.000000e+00 -1.000000e+00 0.000000e+00
      outer loop
         vertex 4.000000e-01 -8.400000e-01 -5.000000e-02
         vertex 2.400000e+00 -8.400000e-01 5.000000e-02
         vertex 4.000000e-01 -8.400000e-01 5.000000e-02
      endloop
   endfacet
   facet normal 0.000000e+00 0.000000e+00 -1.000000e+00
      outer loop
         vertex 4.000000e-01 1.600000e-01 -5.000000e-02
         vertex 2.400000e+00 1.600000e-01 -5.000000e-02
         vertex 4.000000e-01 -8.400000e-01 -5.000000e-02
      endloop
   endfacet
   facet normal 0.000000e+00 0.000000e+00 -1.000000e+00
      outer loop
         vertex 4.000000e-01 -8.400000e-01 -5.000000e-02
         vertex 2.400000e+00 1.600000e-01 -5.000000e-02
         vertex 2.400000e+00 -8.400000e-01 -5.000000e-02
      endloop
   endfacet
   facet normal 1.000000e+00 -0.000000e+00 0.000000e+00
      outer loop
         vertex 2.400000e+00 -8.400000e-01 5.000000e-02
         vertex 2.400000e+00 -8.400000e-01 -5.000000e-02
         vertex 2.400000e+00 1.600000e-01 5.000000e-02
      endloop
   endfacet
   facet normal 1.000000e+00 0.000000e+00 0.000000e+00
      outer loop
         vertex 2.400000e+00 1.600000e-01 5.000000e-02
         vertex 2.400000e+00 -8.400000e-01 -5.000000e-02
         vertex 2.400000e+00 1.600000e-01 -5.000000e-02
      endloop
   endfacet
   facet normal -1.000000e+00 0.000000e+00 0.000000e+00
      outer loop
         vertex 4.000000e-01 -8.400000e-01 -5.000000e-02
         vertex 4.000000e-01 -8.400000e-01 5.000000e-02
         vertex 4.000000e-01 1.600000e-01 -5.000000e-02
      endloop
   endfacet
   facet normal -1.000000e+00 0.000000e+00 0.000000e+00
      outer loop
         vertex 4.000000e-01 1.600000e-01 -5.000000e-02
         vertex 4.000000e-01 -8.400000e-01 5.000000e-02
         vertex 4.000000e-01 1.600000e-01 5.000000e-02
      endloop
   endfacet
endsolid