solid Created by Gmsh
facet normal -1 0 0
  outer loop
    vertex 0.025 0.475 -1
    vertex 0.025 -0.475 -1
    vertex 0.025 -0.475 1
  endloop
endfacet
facet normal -1 0 0
  outer loop
    vertex 0.025 0.475 -1
    vertex 0.025 -0.475 1
    vertex 0.025 0.475 1
  endloop
endfacet
facet normal -1 0 0
  outer loop
    vertex -0.025 0.475 -1
    vertex -0.025 -0.475 -1
    vertex -0.025 -0.475 1
  endloop
endfacet
facet normal -1 0 0
  outer loop
    vertex -0.025 0.475 -1
    vertex -0.025 -0.475 1
    vertex -0.025 0.475 1
  endloop
endfacet
facet normal -0.996195 0.0871557 0
  outer loop
    vertex -0.0246202 0.479341 -1
    vertex -0.025 0.475 -1
    vertex -0.025 0.475 1
  endloop
endfacet
facet normal -0.996195 0.0871557 0
  outer loop
    vertex -0.0246202 0.479341 -1
    vertex -0.025 0.475 1
    vertex -0.0246202 0.479341 1
  endloop
endfacet
facet normal -0.965926 0.258819 0
  outer loop
    vertex -0.0234923 0.483551 -1
    vertex -0.0246202 0.479341 1
    vertex -0.0234923 0.483551 1
  endloop
endfacet
facet normal -0.965926 0.258819 0
  outer loop
    vertex -0.0234923 0.483551 -1
    vertex -0.0246202 0.479341 -1
    vertex -0.0246202 0.479341 1
  endloop
endfacet
facet normal -0.906308 0.422618 0
  outer loop
    vertex -0.0216506 0.4875 -1
    vertex -0.0234923 0.483551 1
    vertex -0.0216506 0.4875 1
  endloop
endfacet
facet normal -0.906308 0.422618 0
  outer loop
    vertex -0.0216506 0.4875 -1
    vertex -0.0234923 0.483551 -1
    vertex -0.0234923 0.483551 1
  endloop
endfacet
facet normal -0.819152 0.573576 0
  outer loop
    vertex -0.0191511 0.49107 -1
    vertex -0.0216506 0.4875 1
    vertex -0.0191511 0.49107 1
  endloop
endfacet
facet normal -0.819152 0.573576 0
  outer loop
    vertex -0.0191511 0.49107 -1
    vertex -0.0216506 0.4875 -1
    vertex -0.0216506 0.4875 1
  endloop
endfacet
facet normal -0.707107 0.707107 0
  outer loop
    vertex -0.0160697 0.494151 -1
    vertex -0.0191511 0.49107 1
    vertex -0.0160697 0.494151 1
  endloop
endfacet
facet normal -0.707107 0.707107 0
  outer loop
    vertex -0.0160697 0.494151 -1
    vertex -0.0191511 0.49107 -1
    vertex -0.0191511 0.49107 1
  endloop
endfacet
facet normal -0.573576 0.819152 0
  outer loop
    vertex -0.0125 0.496651 -1
    vertex -0.0160697 0.494151 1
    vertex -0.0125 0.496651 1
  endloop
endfacet
facet normal -0.422618 0.906308 0
  outer loop
    vertex -0.0125 0.496651 -1
    vertex -0.0125 0.496651 1
    vertex -0.0085505 0.498492 1
  endloop
endfacet
facet normal -0.573576 0.819152 0
  outer loop
    vertex -0.0125 0.496651 -1
    vertex -0.0160697 0.494151 -1
    vertex -0.0160697 0.494151 1
  endloop
endfacet
facet normal -0.422618 0.906308 0
  outer loop
    vertex -0.0085505 0.498492 -1
    vertex -0.0125 0.496651 -1
    vertex -0.0085505 0.498492 1
  endloop
endfacet
facet normal -0.258819 0.965926 0
  outer loop
    vertex -0.0043412 0.49962 -1
    vertex -0.0085505 0.498492 1
    vertex -0.0043412 0.49962 1
  endloop
endfacet
facet normal -0.258819 0.965926 0
  outer loop
    vertex -0.0043412 0.49962 -1
    vertex -0.0085505 0.498492 -1
    vertex -0.0085505 0.498492 1
  endloop
endfacet
facet normal -0.0871557 0.996195 0
  outer loop
    vertex -4.90012e-017 0.5 -1
    vertex -0.0043412 0.49962 1
    vertex -4.90012e-017 0.5 1
  endloop
endfacet
facet normal -0.0871557 0.996195 0
  outer loop
    vertex -4.90012e-017 0.5 -1
    vertex -0.0043412 0.49962 -1
    vertex -0.0043412 0.49962 1
  endloop
endfacet
facet normal 0.0871557 0.996195 -0
  outer loop
    vertex 0.0043412 0.49962 -1
    vertex -4.90012e-017 0.5 1
    vertex 0.0043412 0.49962 1
  endloop
endfacet
facet normal 0.258819 0.965926 -0
  outer loop
    vertex 0.0043412 0.49962 -1
    vertex 0.0043412 0.49962 1
    vertex 0.0085505 0.498492 1
  endloop
endfacet
facet normal 0.0871557 0.996195 0
  outer loop
    vertex 0.0043412 0.49962 -1
    vertex -4.90012e-017 0.5 -1
    vertex -4.90012e-017 0.5 1
  endloop
endfacet
facet normal 0.258819 0.965926 -0
  outer loop
    vertex 0.0085505 0.498492 -1
    vertex 0.0043412 0.49962 -1
    vertex 0.0085505 0.498492 1
  endloop
endfacet
facet normal 0.422618 0.906308 -0
  outer loop
    vertex 0.0125 0.496651 -1
    vertex 0.0085505 0.498492 1
    vertex 0.0125 0.496651 1
  endloop
endfacet
facet normal 0.422618 0.906308 0
  outer loop
    vertex 0.0125 0.496651 -1
    vertex 0.0085505 0.498492 -1
    vertex 0.0085505 0.498492 1
  endloop
endfacet
facet normal 0.573576 0.819152 -0
  outer loop
    vertex 0.0160697 0.494151 -1
    vertex 0.0125 0.496651 1
    vertex 0.0160697 0.494151 1
  endloop
endfacet
facet normal 0.707107 0.707107 -0
  outer loop
    vertex 0.0160697 0.494151 -1
    vertex 0.0160697 0.494151 1
    vertex 0.0191511 0.49107 1
  endloop
endfacet
facet normal 0.573576 0.819152 0
  outer loop
    vertex 0.0160697 0.494151 -1
    vertex 0.0125 0.496651 -1
    vertex 0.0125 0.496651 1
  endloop
endfacet
facet normal 0.707107 0.707107 -0
  outer loop
    vertex 0.0191511 0.49107 -1
    vertex 0.0160697 0.494151 -1
    vertex 0.0191511 0.49107 1
  endloop
endfacet
facet normal 0.819152 0.573576 0
  outer loop
    vertex 0.0216506 0.4875 -1
    vertex 0.0191511 0.49107 -1
    vertex 0.0191511 0.49107 1
  endloop
endfacet
facet normal 0.819152 0.573576 -0
  outer loop
    vertex 0.0216506 0.4875 -1
    vertex 0.0191511 0.49107 1
    vertex 0.0216506 0.4875 1
  endloop
endfacet
facet normal 0.906308 0.422618 0
  outer loop
    vertex 0.0234923 0.483551 -1
    vertex 0.0216506 0.4875 -1
    vertex 0.0216506 0.4875 1
  endloop
endfacet
facet normal 0.906308 0.422618 -0
  outer loop
    vertex 0.0234923 0.483551 -1
    vertex 0.0216506 0.4875 1
    vertex 0.0234923 0.483551 1
  endloop
endfacet
facet normal 0.965926 0.258819 -0
  outer loop
    vertex 0.0234923 0.483551 -1
    vertex 0.0234923 0.483551 1
    vertex 0.0246202 0.479341 1
  endloop
endfacet
facet normal 0.965926 0.258819 -0
  outer loop
    vertex 0.0246202 0.479341 -1
    vertex 0.0234923 0.483551 -1
    vertex 0.0246202 0.479341 1
  endloop
endfacet
facet normal 0.996195 0.0871557 0
  outer loop
    vertex 0.025 0.475 -1
    vertex 0.0246202 0.479341 -1
    vertex 0.0246202 0.479341 1
  endloop
endfacet
facet normal 0.996195 0.0871557 -0
  outer loop
    vertex 0.025 0.475 -1
    vertex 0.0246202 0.479341 1
    vertex 0.025 0.475 1
  endloop
endfacet
facet normal 0.996195 -0.0871557 0
  outer loop
    vertex 0.0246202 -0.479341 -1
    vertex 0.025 -0.475 -1
    vertex 0.025 -0.475 1
  endloop
endfacet
facet normal 0.996195 -0.0871557 0
  outer loop
    vertex 0.0246202 -0.479341 -1
    vertex 0.025 -0.475 1
    vertex 0.0246202 -0.479341 1
  endloop
endfacet
facet normal 0.965926 -0.258819 0
  outer loop
    vertex 0.0234923 -0.483551 -1
    vertex 0.0246202 -0.479341 1
    vertex 0.0234923 -0.483551 1
  endloop
endfacet
facet normal 0.965926 -0.258819 0
  outer loop
    vertex 0.0234923 -0.483551 -1
    vertex 0.0246202 -0.479341 -1
    vertex 0.0246202 -0.479341 1
  endloop
endfacet
facet normal 0.906308 -0.422618 0
  outer loop
    vertex 0.0216506 -0.4875 -1
    vertex 0.0234923 -0.483551 1
    vertex 0.0216506 -0.4875 1
  endloop
endfacet
facet normal 0.906308 -0.422618 0
  outer loop
    vertex 0.0216506 -0.4875 -1
    vertex 0.0234923 -0.483551 -1
    vertex 0.0234923 -0.483551 1
  endloop
endfacet
facet normal 0.819152 -0.573576 0
  outer loop
    vertex 0.0191511 -0.49107 -1
    vertex 0.0216506 -0.4875 1
    vertex 0.0191511 -0.49107 1
  endloop
endfacet
facet normal 0.819152 -0.573576 0
  outer loop
    vertex 0.0191511 -0.49107 -1
    vertex 0.0216506 -0.4875 -1
    vertex 0.0216506 -0.4875 1
  endloop
endfacet
facet normal 0.707107 -0.707107 0
  outer loop
    vertex 0.0160697 -0.494151 -1
    vertex 0.0191511 -0.49107 1
    vertex 0.0160697 -0.494151 1
  endloop
endfacet
facet normal 0.707107 -0.707107 0
  outer loop
    vertex 0.0160697 -0.494151 -1
    vertex 0.0191511 -0.49107 -1
    vertex 0.0191511 -0.49107 1
  endloop
endfacet
facet normal 0.573576 -0.819152 0
  outer loop
    vertex 0.0125 -0.496651 -1
    vertex 0.0160697 -0.494151 1
    vertex 0.0125 -0.496651 1
  endloop
endfacet
facet normal 0.573576 -0.819152 0
  outer loop
    vertex 0.0125 -0.496651 -1
    vertex 0.0160697 -0.494151 -1
    vertex 0.0160697 -0.494151 1
  endloop
endfacet
facet normal 0.422618 -0.906308 0
  outer loop
    vertex 0.0085505 -0.498492 -1
    vertex 0.0125 -0.496651 1
    vertex 0.0085505 -0.498492 1
  endloop
endfacet
facet normal 0.422618 -0.906308 0
  outer loop
    vertex 0.0085505 -0.498492 -1
    vertex 0.0125 -0.496651 -1
    vertex 0.0125 -0.496651 1
  endloop
endfacet
facet normal 0.258819 -0.965926 0
  outer loop
    vertex 0.0043412 -0.49962 -1
    vertex 0.0085505 -0.498492 1
    vertex 0.0043412 -0.49962 1
  endloop
endfacet
facet normal 0.0871557 -0.996195 0
  outer loop
    vertex 0.0043412 -0.49962 -1
    vertex 0.0043412 -0.49962 1
    vertex 1.53076e-018 -0.5 1
  endloop
endfacet
facet normal 0.258819 -0.965926 0
  outer loop
    vertex 0.0043412 -0.49962 -1
    vertex 0.0085505 -0.498492 -1
    vertex 0.0085505 -0.498492 1
  endloop
endfacet
facet normal 0.0871557 -0.996195 0
  outer loop
    vertex 1.53076e-018 -0.5 -1
    vertex 0.0043412 -0.49962 -1
    vertex 1.53076e-018 -0.5 1
  endloop
endfacet
facet normal -0.0871557 -0.996195 0
  outer loop
    vertex -0.0043412 -0.49962 -1
    vertex 1.53076e-018 -0.5 1
    vertex -0.0043412 -0.49962 1
  endloop
endfacet
facet normal -0.0871557 -0.996195 0
  outer loop
    vertex -0.0043412 -0.49962 -1
    vertex 1.53076e-018 -0.5 -1
    vertex 1.53076e-018 -0.5 1
  endloop
endfacet
facet normal -0.258819 -0.965926 0
  outer loop
    vertex -0.0085505 -0.498492 -1
    vertex -0.0043412 -0.49962 1
    vertex -0.0085505 -0.498492 1
  endloop
endfacet
facet normal -0.258819 -0.965926 0
  outer loop
    vertex -0.0085505 -0.498492 -1
    vertex -0.0043412 -0.49962 -1
    vertex -0.0043412 -0.49962 1
  endloop
endfacet
facet normal -0.422618 -0.906308 0
  outer loop
    vertex -0.0125 -0.496651 -1
    vertex -0.0085505 -0.498492 1
    vertex -0.0125 -0.496651 1
  endloop
endfacet
facet normal -0.422618 -0.906308 0
  outer loop
    vertex -0.0125 -0.496651 -1
    vertex -0.0085505 -0.498492 -1
    vertex -0.0085505 -0.498492 1
  endloop
endfacet
facet normal -0.573576 -0.819152 0
  outer loop
    vertex -0.0160697 -0.494151 -1
    vertex -0.0125 -0.496651 1
    vertex -0.0160697 -0.494151 1
  endloop
endfacet
facet normal -0.573576 -0.819152 0
  outer loop
    vertex -0.0160697 -0.494151 -1
    vertex -0.0125 -0.496651 -1
    vertex -0.0125 -0.496651 1
  endloop
endfacet
facet normal -0.707107 -0.707107 0
  outer loop
    vertex -0.0191511 -0.49107 -1
    vertex -0.0160697 -0.494151 1
    vertex -0.0191511 -0.49107 1
  endloop
endfacet
facet normal -0.819152 -0.573576 0
  outer loop
    vertex -0.0191511 -0.49107 -1
    vertex -0.0191511 -0.49107 1
    vertex -0.0216506 -0.4875 1
  endloop
endfacet
facet normal -0.707107 -0.707107 0
  outer loop
    vertex -0.0191511 -0.49107 -1
    vertex -0.0160697 -0.494151 -1
    vertex -0.0160697 -0.494151 1
  endloop
endfacet
facet normal -0.819152 -0.573576 0
  outer loop
    vertex -0.0216506 -0.4875 -1
    vertex -0.0191511 -0.49107 -1
    vertex -0.0216506 -0.4875 1
  endloop
endfacet
facet normal -0.906308 -0.422618 0
  outer loop
    vertex -0.0234923 -0.483551 -1
    vertex -0.0216506 -0.4875 -1
    vertex -0.0216506 -0.4875 1
  endloop
endfacet
facet normal -0.906308 -0.422618 0
  outer loop
    vertex -0.0234923 -0.483551 -1
    vertex -0.0216506 -0.4875 1
    vertex -0.0234923 -0.483551 1
  endloop
endfacet
facet normal -0.965926 -0.258819 0
  outer loop
    vertex -0.0246202 -0.479341 -1
    vertex -0.0234923 -0.483551 -1
    vertex -0.0234923 -0.483551 1
  endloop
endfacet
facet normal -0.965926 -0.258819 0
  outer loop
    vertex -0.0246202 -0.479341 -1
    vertex -0.0234923 -0.483551 1
    vertex -0.0246202 -0.479341 1
  endloop
endfacet
facet normal -0.996195 -0.0871557 0
  outer loop
    vertex -0.0246202 -0.479341 -1
    vertex -0.0246202 -0.479341 1
    vertex -0.025 -0.475 1
  endloop
endfacet
facet normal -0.996195 -0.0871557 0
  outer loop
    vertex -0.025 -0.475 -1
    vertex -0.0246202 -0.479341 -1
    vertex -0.025 -0.475 1
  endloop
endfacet
endsolid Created by Gmsh
