solid CATIA STL
  facet normal  1.000000e+00  0.000000e+00  0.000000e+00
    outer loop
      vertex  2.000000e-02  3.000000e-01 -7.500000e-01
      vertex  2.000000e-02  3.300000e+00 -7.500000e-01
      vertex  2.000000e-02  3.000000e-01  2.500000e-01
    endloop
  endfacet
  facet normal  1.000000e+00  -0.000000e+00  0.000000e+00
    outer loop
      vertex  2.000000e-02  3.000000e-01  2.500000e-01
      vertex  2.000000e-02  3.300000e+00 -7.500000e-01
      vertex  2.000000e-02  3.300000e+00  2.500000e-01
    endloop
  endfacet
  facet normal -1.000000e+00  0.000000e+00  0.000000e+00
    outer loop
      vertex -2.000000e-02  3.000000e-01 -7.500000e-01
      vertex -2.000000e-02  3.000000e-01  2.500000e-01
      vertex -2.000000e-02  3.300000e+00 -7.500000e-01
    endloop
  endfacet
  facet normal -1.000000e+00  0.000000e+00  0.000000e+00
    outer loop
      vertex -2.000000e-02  3.300000e+00 -7.500000e-01
      vertex -2.000000e-02  3.000000e-01  2.500000e-01
      vertex -2.000000e-02  3.300000e+00  2.500000e-01
    endloop
  endfacet
  facet normal  0.000000e+00  0.000000e+00  1.000000e+00
    outer loop
      vertex  2.000000e-02  3.000000e-01  2.500000e-01
      vertex  2.000000e-02  3.300000e+00  2.500000e-01
      vertex -2.000000e-02  3.000000e-01  2.500000e-01
    endloop
  endfacet
  facet normal  0.000000e+00  0.000000e+00  1.000000e+00
    outer loop
      vertex -2.000000e-02  3.000000e-01  2.500000e-01
      vertex  2.000000e-02  3.300000e+00  2.500000e-01
      vertex -2.000000e-02  3.300000e+00  2.500000e-01
    endloop
  endfacet
  facet normal  0.000000e+00  1.000000e+00  0.000000e+00
    outer loop
      vertex  2.000000e-02  3.300000e+00 -7.500000e-01
      vertex -2.000000e-02  3.300000e+00 -7.500000e-01
      vertex  2.000000e-02  3.300000e+00  2.500000e-01
    endloop
  endfacet
  facet normal  0.000000e+00  1.000000e+00  0.000000e+00
    outer loop
      vertex  2.000000e-02  3.300000e+00  2.500000e-01
      vertex -2.000000e-02  3.300000e+00 -7.500000e-01
      vertex -2.000000e-02  3.300000e+00  2.500000e-01
    endloop
  endfacet
  facet normal  0.000000e+00  0.000000e+00 -1.000000e+00
    outer loop
      vertex  2.000000e-02  3.300000e+00 -7.500000e-01
      vertex  2.000000e-02  3.000000e-01 -7.500000e-01
      vertex -2.000000e-02  3.300000e+00 -7.500000e-01
    endloop
  endfacet
  facet normal  0.000000e+00  0.000000e+00 -1.000000e+00
    outer loop
      vertex -2.000000e-02  3.300000e+00 -7.500000e-01
      vertex  2.000000e-02  3.000000e-01 -7.500000e-01
      vertex -2.000000e-02  3.000000e-01 -7.500000e-01
    endloop
  endfacet
  facet normal  0.000000e+00 -1.000000e+00  0.000000e+00
    outer loop
      vertex  2.000000e-02  3.000000e-01  2.500000e-01
      vertex -2.000000e-02  3.000000e-01  2.500000e-01
      vertex  2.000000e-02  3.000000e-01 -7.500000e-01
    endloop
  endfacet
  facet normal  0.000000e+00 -1.000000e+00  0.000000e+00
    outer loop
      vertex  2.000000e-02  3.000000e-01 -7.500000e-01
      vertex -2.000000e-02  3.000000e-01  2.500000e-01
      vertex -2.000000e-02  3.000000e-01 -7.500000e-01
    endloop
  endfacet
endsolid CATIA STL
