solid hm_geometry
   facet normal -9.982523e-01 -5.909613e-02 0.000000e+00
      outer loop
         vertex 3.174311e-01 -3.917257e-01 -1.850000e-02
         vertex 3.174311e-01 -3.917257e-01 1.850000e-02
         vertex 3.078272e-01 -2.294962e-01 1.850000e-02
      endloop
   endfacet
   facet normal -9.982523e-01 -5.909613e-02 0.000000e+00
      outer loop
         vertex 3.174311e-01 -3.917257e-01 -1.850000e-02
         vertex 3.078272e-01 -2.294962e-01 1.850000e-02
         vertex 3.078272e-01 -2.294962e-01 -1.850000e-02
      endloop
   endfacet
   facet normal -9.999803e-01 -6.279063e-03 0.000000e+00
      outer loop
         vertex 3.078272e-01 -2.294962e-01 -1.850000e-02
         vertex 3.078272e-01 -2.294962e-01 1.850000e-02
         vertex 3.068161e-01 -6.847640e-02 1.850000e-02
      endloop
   endfacet
   facet normal -9.999803e-01 -6.279063e-03 0.000000e+00
      outer loop
         vertex 3.078272e-01 -2.294962e-01 -1.850000e-02
         vertex 3.068161e-01 -6.847640e-02 1.850000e-02
         vertex 3.068161e-01 -6.847640e-02 -1.850000e-02
      endloop
   endfacet
   facet normal -9.994918e-01 3.187630e-02 0.000000e+00
      outer loop
         vertex 3.068161e-01 -6.847640e-02 -1.850000e-02
         vertex 3.068161e-01 -6.847640e-02 1.850000e-02
         vertex 3.090000e-01 2.300000e-16 1.850000e-02
      endloop
   endfacet
   facet normal -9.994918e-01 3.187630e-02 0.000000e+00
      outer loop
         vertex 3.068161e-01 -6.847640e-02 -1.850000e-02
         vertex 3.090000e-01 2.300000e-16 1.850000e-02
         vertex 3.090000e-01 2.300000e-16 -1.850000e-02
      endloop
   endfacet
   facet normal -1.434838e-01 9.896527e-01 0.000000e+00
      outer loop
         vertex 3.090000e-01 2.300000e-16 -1.850000e-02
         vertex 3.090000e-01 2.300000e-16 1.850000e-02
         vertex 7.060334e-01 5.756347e-02 1.850000e-02
      endloop
   endfacet
   facet normal -1.434838e-01 9.896527e-01 0.000000e+00
      outer loop
         vertex 3.090000e-01 2.300000e-16 -1.850000e-02
         vertex 7.060334e-01 5.756347e-02 1.850000e-02
         vertex 7.060334e-01 5.756347e-02 -1.850000e-02
      endloop
   endfacet
   facet normal -1.263968e-01 9.919798e-01 0.000000e+00
      outer loop
         vertex 7.060334e-01 5.756347e-02 -1.850000e-02
         vertex 7.060334e-01 5.756347e-02 1.850000e-02
         vertex 1.065726e+00 1.033951e-01 1.850000e-02
      endloop
   endfacet
   facet normal -1.263968e-01 9.919798e-01 0.000000e+00
      outer loop
         vertex 7.060334e-01 5.756347e-02 -1.850000e-02
         vertex 1.065726e+00 1.033951e-01 1.850000e-02
         vertex 1.065726e+00 1.033951e-01 -1.850000e-02
      endloop
   endfacet
   facet normal -1.053711e-01 9.944330e-01 0.000000e+00
      outer loop
         vertex 1.065726e+00 1.033951e-01 -1.850000e-02
         vertex 1.065726e+00 1.033951e-01 1.850000e-02
         vertex 1.459181e+00 1.450860e-01 1.850000e-02
      endloop
   endfacet
   facet normal -1.053711e-01 9.944330e-01 0.000000e+00
      outer loop
         vertex 1.065726e+00 1.033951e-01 -1.850000e-02
         vertex 1.459181e+00 1.450860e-01 1.850000e-02
         vertex 1.459181e+00 1.450860e-01 -1.850000e-02
      endloop
   endfacet
   facet normal -9.694547e-02 9.952897e-01 0.000000e+00
      outer loop
         vertex 1.459181e+00 1.450860e-01 -1.850000e-02
         vertex 1.459181e+00 1.450860e-01 1.850000e-02
         vertex 1.704348e+00 1.689662e-01 1.850000e-02
      endloop
   endfacet
   facet normal -9.694547e-02 9.952897e-01 0.000000e+00
      outer loop
         vertex 1.459181e+00 1.450860e-01 -1.850000e-02
         vertex 1.704348e+00 1.689662e-01 1.850000e-02
         vertex 1.704348e+00 1.689662e-01 -1.850000e-02
      endloop
   endfacet
   facet normal -5.707260e-02 9.983700e-01 0.000000e+00
      outer loop
         vertex 1.704348e+00 1.689662e-01 -1.850000e-02
         vertex 1.704348e+00 1.689662e-01 1.850000e-02
         vertex 1.995908e+00 1.856335e-01 1.850000e-02
      endloop
   endfacet
   facet normal -5.707260e-02 9.983700e-01 0.000000e+00
      outer loop
         vertex 1.704348e+00 1.689662e-01 -1.850000e-02
         vertex 1.995908e+00 1.856335e-01 1.850000e-02
         vertex 1.995908e+00 1.856335e-01 -1.850000e-02
      endloop
   endfacet
   facet normal -2.689014e-02 9.996384e-01 0.000000e+00
      outer loop
         vertex 1.995908e+00 1.856335e-01 -1.850000e-02
         vertex 1.995908e+00 1.856335e-01 1.850000e-02
         vertex 2.274164e+00 1.931186e-01 1.850000e-02
      endloop
   endfacet
   facet normal -2.689014e-02 9.996384e-01 0.000000e+00
      outer loop
         vertex 1.995908e+00 1.856335e-01 -1.850000e-02
         vertex 2.274164e+00 1.931186e-01 1.850000e-02
         vertex 2.274164e+00 1.931186e-01 -1.850000e-02
      endloop
   endfacet
   facet normal 5.994082e-03 9.999820e-01 -0.000000e+00
      outer loop
         vertex 2.274164e+00 1.931186e-01 -1.850000e-02
         vertex 2.274164e+00 1.931186e-01 1.850000e-02
         vertex 2.533258e+00 1.915655e-01 1.850000e-02
      endloop
   endfacet
   facet normal 5.994082e-03 9.999820e-01 0.000000e+00
      outer loop
         vertex 2.274164e+00 1.931186e-01 -1.850000e-02
         vertex 2.533258e+00 1.915655e-01 1.850000e-02
         vertex 2.533258e+00 1.915655e-01 -1.850000e-02
      endloop
   endfacet
   facet normal 3.533544e-02 9.993755e-01 -0.000000e+00
      outer loop
         vertex 2.533258e+00 1.915655e-01 -1.850000e-02
         vertex 2.533258e+00 1.915655e-01 1.850000e-02
         vertex 2.682356e+00 1.862938e-01 1.850000e-02
      endloop
   endfacet
   facet normal 3.533544e-02 9.993755e-01 0.000000e+00
      outer loop
         vertex 2.533258e+00 1.915655e-01 -1.850000e-02
         vertex 2.682356e+00 1.862938e-01 1.850000e-02
         vertex 2.682356e+00 1.862938e-01 -1.850000e-02
      endloop
   endfacet
   facet normal 9.201841e-02 9.957573e-01 -0.000000e+00
      outer loop
         vertex 2.682356e+00 1.862938e-01 -1.850000e-02
         vertex 2.682356e+00 1.862938e-01 1.850000e-02
         vertex 2.860394e+00 1.698412e-01 1.850000e-02
      endloop
   endfacet
   facet normal 9.201841e-02 9.957573e-01 0.000000e+00
      outer loop
         vertex 2.682356e+00 1.862938e-01 -1.850000e-02
         vertex 2.860394e+00 1.698412e-01 1.850000e-02
         vertex 2.860394e+00 1.698412e-01 -1.850000e-02
      endloop
   endfacet
   facet normal 1.444480e-01 9.895124e-01 -0.000000e+00
      outer loop
         vertex 2.860394e+00 1.698412e-01 -1.850000e-02
         vertex 2.860394e+00 1.698412e-01 1.850000e-02
         vertex 2.991018e+00 1.507729e-01 1.850000e-02
      endloop
   endfacet
   facet normal 1.444480e-01 9.895124e-01 0.000000e+00
      outer loop
         vertex 2.860394e+00 1.698412e-01 -1.850000e-02
         vertex 2.991018e+00 1.507729e-01 1.850000e-02
         vertex 2.991018e+00 1.507729e-01 -1.850000e-02
      endloop
   endfacet
   facet normal 2.044909e-01 9.788685e-01 -0.000000e+00
      outer loop
         vertex 2.991018e+00 1.507729e-01 -1.850000e-02
         vertex 2.991018e+00 1.507729e-01 1.850000e-02
         vertex 3.100879e+00 1.278222e-01 1.850000e-02
      endloop
   endfacet
   facet normal 2.044909e-01 9.788685e-01 0.000000e+00
      outer loop
         vertex 2.991018e+00 1.507729e-01 -1.850000e-02
         vertex 3.100879e+00 1.278222e-01 1.850000e-02
         vertex 3.100879e+00 1.278222e-01 -1.850000e-02
      endloop
   endfacet
   facet normal 2.738970e-01 9.617590e-01 -0.000000e+00
      outer loop
         vertex 3.100879e+00 1.278222e-01 -1.850000e-02
         vertex 3.100879e+00 1.278222e-01 1.850000e-02
         vertex 3.194943e+00 1.010342e-01 1.850000e-02
      endloop
   endfacet
   facet normal 2.738970e-01 9.617590e-01 0.000000e+00
      outer loop
         vertex 3.100879e+00 1.278222e-01 -1.850000e-02
         vertex 3.194943e+00 1.010342e-01 1.850000e-02
         vertex 3.194943e+00 1.010342e-01 -1.850000e-02
      endloop
   endfacet
   facet normal 3.513215e-01 9.362549e-01 -0.000000e+00
      outer loop
         vertex 3.194943e+00 1.010342e-01 -1.850000e-02
         vertex 3.194943e+00 1.010342e-01 1.850000e-02
         vertex 3.276706e+00 7.035340e-02 1.850000e-02
      endloop
   endfacet
   facet normal 3.513215e-01 9.362549e-01 0.000000e+00
      outer loop
         vertex 3.194943e+00 1.010342e-01 -1.850000e-02
         vertex 3.276706e+00 7.035340e-02 1.850000e-02
         vertex 3.276706e+00 7.035340e-02 -1.850000e-02
      endloop
   endfacet
   facet normal 4.165628e-01 9.091070e-01 -0.000000e+00
      outer loop
         vertex 3.276706e+00 7.035340e-02 -1.850000e-02
         vertex 3.276706e+00 7.035340e-02 1.850000e-02
         vertex 3.318904e+00 5.101740e-02 1.850000e-02
      endloop
   endfacet
   facet normal 4.165628e-01 9.091070e-01 0.000000e+00
      outer loop
         vertex 3.276706e+00 7.035340e-02 -1.850000e-02
         vertex 3.318904e+00 5.101740e-02 1.850000e-02
         vertex 3.318904e+00 5.101740e-02 -1.850000e-02
      endloop
   endfacet
   facet normal 6.081885e-01 7.937926e-01 -0.000000e+00
      outer loop
         vertex 3.318904e+00 5.101740e-02 -1.850000e-02
         vertex 3.318904e+00 5.101740e-02 1.850000e-02
         vertex 3.359271e+00 2.008907e-02 1.850000e-02
      endloop
   endfacet
   facet normal 6.081885e-01 7.937926e-01 0.000000e+00
      outer loop
         vertex 3.318904e+00 5.101740e-02 -1.850000e-02
         vertex 3.359271e+00 2.008907e-02 1.850000e-02
         vertex 3.359271e+00 2.008907e-02 -1.850000e-02
      endloop
   endfacet
   facet normal 7.305185e-01 6.828929e-01 -0.000000e+00
      outer loop
         vertex 3.359271e+00 2.008907e-02 -1.850000e-02
         vertex 3.359271e+00 2.008907e-02 1.850000e-02
         vertex 3.379408e+00 -1.451612e-03 1.850000e-02
      endloop
   endfacet
   facet normal 7.305185e-01 6.828929e-01 0.000000e+00
      outer loop
         vertex 3.359271e+00 2.008907e-02 -1.850000e-02
         vertex 3.379408e+00 -1.451612e-03 1.850000e-02
         vertex 3.379408e+00 -1.451612e-03 -1.850000e-02
      endloop
   endfacet
   facet normal 8.303451e-01 5.572495e-01 -0.000000e+00
      outer loop
         vertex 3.379408e+00 -1.451612e-03 -1.850000e-02
         vertex 3.379408e+00 -1.451612e-03 1.850000e-02
         vertex 3.393422e+00 -2.233393e-02 1.850000e-02
      endloop
   endfacet
   facet normal 8.303451e-01 5.572495e-01 0.000000e+00
      outer loop
         vertex 3.379408e+00 -1.451612e-03 -1.850000e-02
         vertex 3.393422e+00 -2.233393e-02 1.850000e-02
         vertex 3.393422e+00 -2.233393e-02 -1.850000e-02
      endloop
   endfacet
   facet normal 9.103830e-01 4.137665e-01 -0.000000e+00
      outer loop
         vertex 3.393422e+00 -2.233393e-02 -1.850000e-02
         vertex 3.393422e+00 -2.233393e-02 1.850000e-02
         vertex 3.401361e+00 -3.980076e-02 1.850000e-02
      endloop
   endfacet
   facet normal 9.103830e-01 4.137665e-01 0.000000e+00
      outer loop
         vertex 3.393422e+00 -2.233393e-02 -1.850000e-02
         vertex 3.401361e+00 -3.980076e-02 1.850000e-02
         vertex 3.401361e+00 -3.980076e-02 -1.850000e-02
      endloop
   endfacet
   facet normal 9.639777e-01 2.659832e-01 -0.000000e+00
      outer loop
         vertex 3.401361e+00 -3.980076e-02 -1.850000e-02
         vertex 3.401361e+00 -3.980076e-02 1.850000e-02
         vertex 3.406023e+00 -5.669867e-02 1.850000e-02
      endloop
   endfacet
   facet normal 9.639777e-01 2.659832e-01 0.000000e+00
      outer loop
         vertex 3.401361e+00 -3.980076e-02 -1.850000e-02
         vertex 3.406023e+00 -5.669867e-02 1.850000e-02
         vertex 3.406023e+00 -5.669867e-02 -1.850000e-02
      endloop
   endfacet
   facet normal 9.944014e-01 1.056686e-01 -0.000000e+00
      outer loop
         vertex 3.406023e+00 -5.669867e-02 -1.850000e-02
         vertex 3.406023e+00 -5.669867e-02 1.850000e-02
         vertex 3.407967e+00 -7.498893e-02 1.850000e-02
      endloop
   endfacet
   facet normal 9.944014e-01 1.056686e-01 0.000000e+00
      outer loop
         vertex 3.406023e+00 -5.669867e-02 -1.850000e-02
         vertex 3.407967e+00 -7.498893e-02 1.850000e-02
         vertex 3.407967e+00 -7.498893e-02 -1.850000e-02
      endloop
   endfacet
   facet normal 9.981269e-01 -6.117758e-02 0.000000e+00
      outer loop
         vertex 3.407967e+00 -7.498893e-02 -1.850000e-02
         vertex 3.407967e+00 -7.498893e-02 1.850000e-02
         vertex 3.406795e+00 -9.410758e-02 1.850000e-02
      endloop
   endfacet
   facet normal 9.981269e-01 -6.117758e-02 0.000000e+00
      outer loop
         vertex 3.407967e+00 -7.498893e-02 -1.850000e-02
         vertex 3.406795e+00 -9.410758e-02 1.850000e-02
         vertex 3.406795e+00 -9.410758e-02 -1.850000e-02
      endloop
   endfacet
   facet normal 9.759964e-01 -2.177866e-01 0.000000e+00
      outer loop
         vertex 3.406795e+00 -9.410758e-02 -1.850000e-02
         vertex 3.406795e+00 -9.410758e-02 1.850000e-02
         vertex 3.402380e+00 -1.138901e-01 1.850000e-02
      endloop
   endfacet
   facet normal 9.759964e-01 -2.177866e-01 0.000000e+00
      outer loop
         vertex 3.406795e+00 -9.410758e-02 -1.850000e-02
         vertex 3.402380e+00 -1.138901e-01 1.850000e-02
         vertex 3.402380e+00 -1.138901e-01 -1.850000e-02
      endloop
   endfacet
   facet normal 9.331153e-01 -3.595773e-01 0.000000e+00
      outer loop
         vertex 3.402380e+00 -1.138901e-01 -1.850000e-02
         vertex 3.402380e+00 -1.138901e-01 1.850000e-02
         vertex 3.393807e+00 -1.361381e-01 1.850000e-02
      endloop
   endfacet
   facet normal 9.331153e-01 -3.595773e-01 0.000000e+00
      outer loop
         vertex 3.402380e+00 -1.138901e-01 -1.850000e-02
         vertex 3.393807e+00 -1.361381e-01 1.850000e-02
         vertex 3.393807e+00 -1.361381e-01 -1.850000e-02
      endloop
   endfacet
   facet normal 8.662669e-01 -4.995815e-01 0.000000e+00
      outer loop
         vertex 3.393807e+00 -1.361381e-01 -1.850000e-02
         vertex 3.393807e+00 -1.361381e-01 1.850000e-02
         vertex 3.375493e+00 -1.678949e-01 1.850000e-02
      endloop
   endfacet
   facet normal 8.662669e-01 -4.995815e-01 0.000000e+00
      outer loop
         vertex 3.393807e+00 -1.361381e-01 -1.850000e-02
         vertex 3.375493e+00 -1.678949e-01 1.850000e-02
         vertex 3.375493e+00 -1.678949e-01 -1.850000e-02
      endloop
   endfacet
   facet normal 7.759482e-01 -6.307966e-01 0.000000e+00
      outer loop
         vertex 3.375493e+00 -1.678949e-01 -1.850000e-02
         vertex 3.375493e+00 -1.678949e-01 1.850000e-02
         vertex 3.341149e+00 -2.101411e-01 1.850000e-02
      endloop
   endfacet
   facet normal 7.759482e-01 -6.307966e-01 0.000000e+00
      outer loop
         vertex 3.375493e+00 -1.678949e-01 -1.850000e-02
         vertex 3.341149e+00 -2.101411e-01 1.850000e-02
         vertex 3.341149e+00 -2.101411e-01 -1.850000e-02
      endloop
   endfacet
   facet normal 6.853275e-01 -7.282350e-01 0.000000e+00
      outer loop
         vertex 3.341149e+00 -2.101411e-01 -1.850000e-02
         vertex 3.341149e+00 -2.101411e-01 1.850000e-02
         vertex 3.292223e+00 -2.561845e-01 1.850000e-02
      endloop
   endfacet
   facet normal 6.853275e-01 -7.282350e-01 0.000000e+00
      outer loop
         vertex 3.341149e+00 -2.101411e-01 -1.850000e-02
         vertex 3.292223e+00 -2.561845e-01 1.850000e-02
         vertex 3.292223e+00 -2.561845e-01 -1.850000e-02
      endloop
   endfacet
   facet normal 6.412033e-01 -7.673710e-01 0.000000e+00
      outer loop
         vertex 3.292223e+00 -2.561845e-01 -1.850000e-02
         vertex 3.292223e+00 -2.561845e-01 1.850000e-02
         vertex 3.285180e+00 -2.620696e-01 1.850000e-02
      endloop
   endfacet
   facet normal 6.412033e-01 -7.673710e-01 0.000000e+00
      outer loop
         vertex 3.292223e+00 -2.561845e-01 -1.850000e-02
         vertex 3.285180e+00 -2.620696e-01 1.850000e-02
         vertex 3.285180e+00 -2.620696e-01 -1.850000e-02
      endloop
   endfacet
   facet normal 6.137090e-01 -7.895323e-01 0.000000e+00
      outer loop
         vertex 3.285180e+00 -2.620696e-01 -1.850000e-02
         vertex 3.285180e+00 -2.620696e-01 1.850000e-02
         vertex 3.201021e+00 -3.274867e-01 1.850000e-02
      endloop
   endfacet
   facet normal 6.137090e-01 -7.895323e-01 0.000000e+00
      outer loop
         vertex 3.285180e+00 -2.620696e-01 -1.850000e-02
         vertex 3.201021e+00 -3.274867e-01 1.850000e-02
         vertex 3.201021e+00 -3.274867e-01 -1.850000e-02
      endloop
   endfacet
   facet normal 5.481708e-01 -8.363664e-01 0.000000e+00
      outer loop
         vertex 3.201021e+00 -3.274867e-01 -1.850000e-02
         vertex 3.201021e+00 -3.274867e-01 1.850000e-02
         vertex 3.113950e+00 -3.845547e-01 1.850000e-02
      endloop
   endfacet
   facet normal 5.481708e-01 -8.363664e-01 0.000000e+00
      outer loop
         vertex 3.201021e+00 -3.274867e-01 -1.850000e-02
         vertex 3.113950e+00 -3.845547e-01 1.850000e-02
         vertex 3.113950e+00 -3.845547e-01 -1.850000e-02
      endloop
   endfacet
   facet normal 4.851260e-01 -8.744442e-01 0.000000e+00
      outer loop
         vertex 3.113950e+00 -3.845547e-01 -1.850000e-02
         vertex 3.113950e+00 -3.845547e-01 1.850000e-02
         vertex 3.022183e+00 -4.354658e-01 1.850000e-02
      endloop
   endfacet
   facet normal 4.851260e-01 -8.744442e-01 0.000000e+00
      outer loop
         vertex 3.113950e+00 -3.845547e-01 -1.850000e-02
         vertex 3.022183e+00 -4.354658e-01 1.850000e-02
         vertex 3.022183e+00 -4.354658e-01 -1.850000e-02
      endloop
   endfacet
   facet normal 4.317697e-01 -9.019839e-01 0.000000e+00
      outer loop
         vertex 3.022183e+00 -4.354658e-01 -1.850000e-02
         vertex 3.022183e+00 -4.354658e-01 1.850000e-02
         vertex 2.918258e+00 -4.852136e-01 1.850000e-02
      endloop
   endfacet
   facet normal 4.317697e-01 -9.019839e-01 0.000000e+00
      outer loop
         vertex 3.022183e+00 -4.354658e-01 -1.850000e-02
         vertex 2.918258e+00 -4.852136e-01 1.850000e-02
         vertex 2.918258e+00 -4.852136e-01 -1.850000e-02
      endloop
   endfacet
   facet normal 3.884973e-01 -9.214499e-01 0.000000e+00
      outer loop
         vertex 2.918258e+00 -4.852136e-01 -1.850000e-02
         vertex 2.918258e+00 -4.852136e-01 1.850000e-02
         vertex 2.756683e+00 -5.533358e-01 1.850000e-02
      endloop
   endfacet
   facet normal 3.884973e-01 -9.214499e-01 0.000000e+00
      outer loop
         vertex 2.918258e+00 -4.852136e-01 -1.850000e-02
         vertex 2.756683e+00 -5.533358e-01 1.850000e-02
         vertex 2.756683e+00 -5.533358e-01 -1.850000e-02
      endloop
   endfacet
   facet normal 3.690593e-01 -9.294058e-01 0.000000e+00
      outer loop
         vertex 2.756683e+00 -5.533358e-01 -1.850000e-02
         vertex 2.756683e+00 -5.533358e-01 1.850000e-02
         vertex 2.522260e+00 -6.464235e-01 1.850000e-02
      endloop
   endfacet
   facet normal 3.690593e-01 -9.294058e-01 0.000000e+00
      outer loop
         vertex 2.756683e+00 -5.533358e-01 -1.850000e-02
         vertex 2.522260e+00 -6.464235e-01 1.850000e-02
         vertex 2.522260e+00 -6.464235e-01 -1.850000e-02
      endloop
   endfacet
   facet normal 3.817414e-01 -9.242692e-01 0.000000e+00
      outer loop
         vertex 2.522260e+00 -6.464235e-01 -1.850000e-02
         vertex 2.522260e+00 -6.464235e-01 1.850000e-02
         vertex 2.414141e+00 -6.910785e-01 1.850000e-02
      endloop
   endfacet
   facet normal 3.817414e-01 -9.242692e-01 0.000000e+00
      outer loop
         vertex 2.522260e+00 -6.464235e-01 -1.850000e-02
         vertex 2.414141e+00 -6.910785e-01 1.850000e-02
         vertex 2.414141e+00 -6.910785e-01 -1.850000e-02
      endloop
   endfacet
   facet normal 4.099255e-01 -9.121190e-01 0.000000e+00
      outer loop
         vertex 2.414141e+00 -6.910785e-01 -1.850000e-02
         vertex 2.414141e+00 -6.910785e-01 1.850000e-02
         vertex 2.305018e+00 -7.401207e-01 1.850000e-02
      endloop
   endfacet
   facet normal 4.099255e-01 -9.121190e-01 0.000000e+00
      outer loop
         vertex 2.414141e+00 -6.910785e-01 -1.850000e-02
         vertex 2.305018e+00 -7.401207e-01 1.850000e-02
         vertex 2.305018e+00 -7.401207e-01 -1.850000e-02
      endloop
   endfacet
   facet normal 4.572189e-01 -8.893542e-01 0.000000e+00
      outer loop
         vertex 2.305018e+00 -7.401207e-01 -1.850000e-02
         vertex 2.305018e+00 -7.401207e-01 1.850000e-02
         vertex 2.219627e+00 -7.840203e-01 1.850000e-02
      endloop
   endfacet
   facet normal 4.572189e-01 -8.893542e-01 0.000000e+00
      outer loop
         vertex 2.305018e+00 -7.401207e-01 -1.850000e-02
         vertex 2.219627e+00 -7.840203e-01 1.850000e-02
         vertex 2.219627e+00 -7.840203e-01 -1.850000e-02
      endloop
   endfacet
   facet normal 5.070773e-01 -8.619006e-01 0.000000e+00
      outer loop
         vertex 2.219627e+00 -7.840203e-01 -1.850000e-02
         vertex 2.219627e+00 -7.840203e-01 1.850000e-02
         vertex 2.176490e+00 -8.093992e-01 1.850000e-02
      endloop
   endfacet
   facet normal 5.070773e-01 -8.619006e-01 0.000000e+00
      outer loop
         vertex 2.219627e+00 -7.840203e-01 -1.850000e-02
         vertex 2.176490e+00 -8.093992e-01 1.850000e-02
         vertex 2.176490e+00 -8.093992e-01 -1.850000e-02
      endloop
   endfacet
   facet normal 9.297610e-01 -3.681638e-01 0.000000e+00
      outer loop
         vertex 2.176490e+00 -8.093992e-01 -1.850000e-02
         vertex 2.176490e+00 -8.093992e-01 1.850000e-02
         vertex 2.160383e+00 -8.500760e-01 1.850000e-02
      endloop
   endfacet
   facet normal 9.297610e-01 -3.681638e-01 0.000000e+00
      outer loop
         vertex 2.176490e+00 -8.093992e-01 -1.850000e-02
         vertex 2.160383e+00 -8.500760e-01 1.850000e-02
         vertex 2.160383e+00 -8.500760e-01 -1.850000e-02
      endloop
   endfacet
   facet normal 8.611855e-01 -5.082908e-01 0.000000e+00
      outer loop
         vertex 2.160383e+00 -8.500760e-01 -1.850000e-02
         vertex 2.160383e+00 -8.500760e-01 1.850000e-02
         vertex 2.136437e+00 -8.906465e-01 1.850000e-02
      endloop
   endfacet
   facet normal 8.611855e-01 -5.082908e-01 0.000000e+00
      outer loop
         vertex 2.160383e+00 -8.500760e-01 -1.850000e-02
         vertex 2.136437e+00 -8.906465e-01 1.850000e-02
         vertex 2.136437e+00 -8.906465e-01 -1.850000e-02
      endloop
   endfacet
   facet normal 7.788499e-01 -6.272104e-01 0.000000e+00
      outer loop
         vertex 2.136437e+00 -8.906465e-01 -1.850000e-02
         vertex 2.136437e+00 -8.906465e-01 1.850000e-02
         vertex 2.101196e+00 -9.344078e-01 1.850000e-02
      endloop
   endfacet
   facet normal 7.788499e-01 -6.272104e-01 0.000000e+00
      outer loop
         vertex 2.136437e+00 -8.906465e-01 -1.850000e-02
         vertex 2.101196e+00 -9.344078e-01 1.850000e-02
         vertex 2.101196e+00 -9.344078e-01 -1.850000e-02
      endloop
   endfacet
   facet normal 6.909015e-01 -7.229489e-01 0.000000e+00
      outer loop
         vertex 2.101196e+00 -9.344078e-01 -1.850000e-02
         vertex 2.101196e+00 -9.344078e-01 1.850000e-02
         vertex 2.054724e+00 -9.788200e-01 1.850000e-02
      endloop
   endfacet
   facet normal 6.909015e-01 -7.229489e-01 0.000000e+00
      outer loop
         vertex 2.101196e+00 -9.344078e-01 -1.850000e-02
         vertex 2.054724e+00 -9.788200e-01 1.850000e-02
         vertex 2.054724e+00 -9.788200e-01 -1.850000e-02
      endloop
   endfacet
   facet normal 6.064173e-01 -7.951466e-01 0.000000e+00
      outer loop
         vertex 2.054724e+00 -9.788200e-01 -1.850000e-02
         vertex 2.054724e+00 -9.788200e-01 1.850000e-02
         vertex 1.995216e+00 -1.024204e+00 1.850000e-02
      endloop
   endfacet
   facet normal 6.064173e-01 -7.951466e-01 0.000000e+00
      outer loop
         vertex 2.054724e+00 -9.788200e-01 -1.850000e-02
         vertex 1.995216e+00 -1.024204e+00 1.850000e-02
         vertex 1.995216e+00 -1.024204e+00 -1.850000e-02
      endloop
   endfacet
   facet normal 5.287721e-01 -8.487639e-01 0.000000e+00
      outer loop
         vertex 1.995216e+00 -1.024204e+00 -1.850000e-02
         vertex 1.995216e+00 -1.024204e+00 1.850000e-02
         vertex 1.920599e+00 -1.070689e+00 1.850000e-02
      endloop
   endfacet
   facet normal 5.287721e-01 -8.487639e-01 0.000000e+00
      outer loop
         vertex 1.995216e+00 -1.024204e+00 -1.850000e-02
         vertex 1.920599e+00 -1.070689e+00 1.850000e-02
         vertex 1.920599e+00 -1.070689e+00 -1.850000e-02
      endloop
   endfacet
   facet normal 4.747759e-01 -8.801067e-01 0.000000e+00
      outer loop
         vertex 1.920599e+00 -1.070689e+00 -1.850000e-02
         vertex 1.920599e+00 -1.070689e+00 1.850000e-02
         vertex 1.872970e+00 -1.096383e+00 1.850000e-02
      endloop
   endfacet
   facet normal 4.747759e-01 -8.801067e-01 0.000000e+00
      outer loop
         vertex 1.920599e+00 -1.070689e+00 -1.850000e-02
         vertex 1.872970e+00 -1.096383e+00 1.850000e-02
         vertex 1.872970e+00 -1.096383e+00 -1.850000e-02
      endloop
   endfacet
   facet normal 3.292165e-01 -9.442545e-01 0.000000e+00
      outer loop
         vertex 1.872970e+00 -1.096383e+00 -1.850000e-02
         vertex 1.872970e+00 -1.096383e+00 1.850000e-02
         vertex 1.757576e+00 -1.136615e+00 1.850000e-02
      endloop
   endfacet
   facet normal 3.292165e-01 -9.442545e-01 0.000000e+00
      outer loop
         vertex 1.872970e+00 -1.096383e+00 -1.850000e-02
         vertex 1.757576e+00 -1.136615e+00 1.850000e-02
         vertex 1.757576e+00 -1.136615e+00 -1.850000e-02
      endloop
   endfacet
   facet normal 2.646196e-01 -9.643529e-01 0.000000e+00
      outer loop
         vertex 1.757576e+00 -1.136615e+00 -1.850000e-02
         vertex 1.757576e+00 -1.136615e+00 1.850000e-02
         vertex 1.637951e+00 -1.169441e+00 1.850000e-02
      endloop
   endfacet
   facet normal 2.646196e-01 -9.643529e-01 0.000000e+00
      outer loop
         vertex 1.757576e+00 -1.136615e+00 -1.850000e-02
         vertex 1.637951e+00 -1.169441e+00 1.850000e-02
         vertex 1.637951e+00 -1.169441e+00 -1.850000e-02
      endloop
   endfacet
   facet normal 2.011522e-01 -9.795600e-01 0.000000e+00
      outer loop
         vertex 1.637951e+00 -1.169441e+00 -1.850000e-02
         vertex 1.637951e+00 -1.169441e+00 1.850000e-02
         vertex 1.512705e+00 -1.195160e+00 1.850000e-02
      endloop
   endfacet
   facet normal 2.011522e-01 -9.795600e-01 0.000000e+00
      outer loop
         vertex 1.637951e+00 -1.169441e+00 -1.850000e-02
         vertex 1.512705e+00 -1.195160e+00 1.850000e-02
         vertex 1.512705e+00 -1.195160e+00 -1.850000e-02
      endloop
   endfacet
   facet normal 1.388682e-01 -9.903109e-01 0.000000e+00
      outer loop
         vertex 1.512705e+00 -1.195160e+00 -1.850000e-02
         vertex 1.512705e+00 -1.195160e+00 1.850000e-02
         vertex 1.381875e+00 -1.213506e+00 1.850000e-02
      endloop
   endfacet
   facet normal 1.388682e-01 -9.903109e-01 0.000000e+00
      outer loop
         vertex 1.512705e+00 -1.195160e+00 -1.850000e-02
         vertex 1.381875e+00 -1.213506e+00 1.850000e-02
         vertex 1.381875e+00 -1.213506e+00 -1.850000e-02
      endloop
   endfacet
   facet normal 7.812454e-02 -9.969436e-01 0.000000e+00
      outer loop
         vertex 1.381875e+00 -1.213506e+00 -1.850000e-02
         vertex 1.381875e+00 -1.213506e+00 1.850000e-02
         vertex 1.245533e+00 -1.224190e+00 1.850000e-02
      endloop
   endfacet
   facet normal 7.812454e-02 -9.969436e-01 0.000000e+00
      outer loop
         vertex 1.381875e+00 -1.213506e+00 -1.850000e-02
         vertex 1.245533e+00 -1.224190e+00 1.850000e-02
         vertex 1.245533e+00 -1.224190e+00 -1.850000e-02
      endloop
   endfacet
   facet normal 1.918127e-02 -9.998160e-01 0.000000e+00
      outer loop
         vertex 1.245533e+00 -1.224190e+00 -1.850000e-02
         vertex 1.245533e+00 -1.224190e+00 1.850000e-02
         vertex 1.103804e+00 -1.226909e+00 1.850000e-02
      endloop
   endfacet
   facet normal 1.918127e-02 -9.998160e-01 0.000000e+00
      outer loop
         vertex 1.245533e+00 -1.224190e+00 -1.850000e-02
         vertex 1.103804e+00 -1.226909e+00 1.850000e-02
         vertex 1.103804e+00 -1.226909e+00 -1.850000e-02
      endloop
   endfacet
   facet normal -1.735431e-02 -9.998494e-01 0.000000e+00
      outer loop
         vertex 1.103804e+00 -1.226909e+00 -1.850000e-02
         vertex 1.103804e+00 -1.226909e+00 1.850000e-02
         vertex 1.063584e+00 -1.226211e+00 1.850000e-02
      endloop
   endfacet
   facet normal -1.735431e-02 -9.998494e-01 0.000000e+00
      outer loop
         vertex 1.103804e+00 -1.226909e+00 -1.850000e-02
         vertex 1.063584e+00 -1.226211e+00 1.850000e-02
         vertex 1.063584e+00 -1.226211e+00 -1.850000e-02
      endloop
   endfacet
   facet normal -1.323667e-01 -9.912008e-01 0.000000e+00
      outer loop
         vertex 1.063584e+00 -1.226211e+00 -1.850000e-02
         vertex 1.063584e+00 -1.226211e+00 1.850000e-02
         vertex 9.700307e-01 -1.213718e+00 1.850000e-02
      endloop
   endfacet
   facet normal -1.323667e-01 -9.912008e-01 0.000000e+00
      outer loop
         vertex 1.063584e+00 -1.226211e+00 -1.850000e-02
         vertex 9.700307e-01 -1.213718e+00 1.850000e-02
         vertex 9.700307e-01 -1.213718e+00 -1.850000e-02
      endloop
   endfacet
   facet normal -2.241796e-01 -9.745479e-01 0.000000e+00
      outer loop
         vertex 9.700307e-01 -1.213718e+00 -1.850000e-02
         vertex 9.700307e-01 -1.213718e+00 1.850000e-02
         vertex 8.809890e-01 -1.193235e+00 1.850000e-02
      endloop
   endfacet
   facet normal -2.241796e-01 -9.745479e-01 0.000000e+00
      outer loop
         vertex 9.700307e-01 -1.213718e+00 -1.850000e-02
         vertex 8.809890e-01 -1.193235e+00 1.850000e-02
         vertex 8.809890e-01 -1.193235e+00 -1.850000e-02
      endloop
   endfacet
   facet normal -3.177367e-01 -9.481790e-01 0.000000e+00
      outer loop
         vertex 8.809890e-01 -1.193235e+00 -1.850000e-02
         vertex 8.809890e-01 -1.193235e+00 1.850000e-02
         vertex 7.973449e-01 -1.165206e+00 1.850000e-02
      endloop
   endfacet
   facet normal -3.177367e-01 -9.481790e-01 0.000000e+00
      outer loop
         vertex 8.809890e-01 -1.193235e+00 -1.850000e-02
         vertex 7.973449e-01 -1.165206e+00 1.850000e-02
         vertex 7.973449e-01 -1.165206e+00 -1.850000e-02
      endloop
   endfacet
   facet normal -4.099989e-01 -9.120860e-01 0.000000e+00
      outer loop
         vertex 7.973449e-01 -1.165206e+00 -1.850000e-02
         vertex 7.973449e-01 -1.165206e+00 1.850000e-02
         vertex 7.185688e-01 -1.129794e+00 1.850000e-02
      endloop
   endfacet
   facet normal -4.099989e-01 -9.120860e-01 0.000000e+00
      outer loop
         vertex 7.973449e-01 -1.165206e+00 -1.850000e-02
         vertex 7.185688e-01 -1.129794e+00 1.850000e-02
         vertex 7.185688e-01 -1.129794e+00 -1.850000e-02
      endloop
   endfacet
   facet normal -4.985851e-01 -8.668408e-01 0.000000e+00
      outer loop
         vertex 7.185688e-01 -1.129794e+00 -1.850000e-02
         vertex 7.185688e-01 -1.129794e+00 1.850000e-02
         vertex 6.441829e-01 -1.087009e+00 1.850000e-02
      endloop
   endfacet
   facet normal -4.985851e-01 -8.668408e-01 0.000000e+00
      outer loop
         vertex 7.185688e-01 -1.129794e+00 -1.850000e-02
         vertex 6.441829e-01 -1.087009e+00 1.850000e-02
         vertex 6.441829e-01 -1.087009e+00 -1.850000e-02
      endloop
   endfacet
   facet normal -5.794622e-01 -8.149991e-01 0.000000e+00
      outer loop
         vertex 6.441829e-01 -1.087009e+00 -1.850000e-02
         vertex 6.441829e-01 -1.087009e+00 1.850000e-02
         vertex 5.770783e-01 -1.039298e+00 1.850000e-02
      endloop
   endfacet
   facet normal -5.794622e-01 -8.149991e-01 0.000000e+00
      outer loop
         vertex 6.441829e-01 -1.087009e+00 -1.850000e-02
         vertex 5.770783e-01 -1.039298e+00 1.850000e-02
         vertex 5.770783e-01 -1.039298e+00 -1.850000e-02
      endloop
   endfacet
   facet normal -6.224041e-01 -7.826961e-01 0.000000e+00
      outer loop
         vertex 5.770783e-01 -1.039298e+00 -1.850000e-02
         vertex 5.770783e-01 -1.039298e+00 1.850000e-02
         vertex 5.661487e-01 -1.030607e+00 1.850000e-02
      endloop
   endfacet
   facet normal -6.224041e-01 -7.826961e-01 0.000000e+00
      outer loop
         vertex 5.770783e-01 -1.039298e+00 -1.850000e-02
         vertex 5.661487e-01 -1.030607e+00 1.850000e-02
         vertex 5.661487e-01 -1.030607e+00 -1.850000e-02
      endloop
   endfacet
   facet normal -7.149255e-01 -6.992006e-01 0.000000e+00
      outer loop
         vertex 5.661487e-01 -1.030607e+00 -1.850000e-02
         vertex 5.661487e-01 -1.030607e+00 1.850000e-02
         vertex 5.204842e-01 -9.839155e-01 1.850000e-02
      endloop
   endfacet
   facet normal -7.149255e-01 -6.992006e-01 0.000000e+00
      outer loop
         vertex 5.661487e-01 -1.030607e+00 -1.850000e-02
         vertex 5.204842e-01 -9.839155e-01 1.850000e-02
         vertex 5.204842e-01 -9.839155e-01 -1.850000e-02
      endloop
   endfacet
   facet normal -7.924771e-01 -6.099016e-01 0.000000e+00
      outer loop
         vertex 5.204842e-01 -9.839155e-01 -1.850000e-02
         vertex 5.204842e-01 -9.839155e-01 1.850000e-02
         vertex 4.786060e-01 -9.295009e-01 1.850000e-02
      endloop
   endfacet
   facet normal -7.924771e-01 -6.099016e-01 0.000000e+00
      outer loop
         vertex 5.204842e-01 -9.839155e-01 -1.850000e-02
         vertex 4.786060e-01 -9.295009e-01 1.850000e-02
         vertex 4.786060e-01 -9.295009e-01 -1.850000e-02
      endloop
   endfacet
   facet normal -8.524970e-01 -5.227321e-01 0.000000e+00
      outer loop
         vertex 4.786060e-01 -9.295009e-01 -1.850000e-02
         vertex 4.786060e-01 -9.295009e-01 1.850000e-02
         vertex 4.392368e-01 -8.652958e-01 1.850000e-02
      endloop
   endfacet
   facet normal -8.524970e-01 -5.227321e-01 0.000000e+00
      outer loop
         vertex 4.786060e-01 -9.295009e-01 -1.850000e-02
         vertex 4.392368e-01 -8.652958e-01 1.850000e-02
         vertex 4.392368e-01 -8.652958e-01 -1.850000e-02
      endloop
   endfacet
   facet normal -8.994234e-01 -4.370784e-01 0.000000e+00
      outer loop
         vertex 4.392368e-01 -8.652958e-01 -1.850000e-02
         vertex 4.392368e-01 -8.652958e-01 1.850000e-02
         vertex 4.033788e-01 -7.915069e-01 1.850000e-02
      endloop
   endfacet
   facet normal -8.994234e-01 -4.370784e-01 0.000000e+00
      outer loop
         vertex 4.392368e-01 -8.652958e-01 -1.850000e-02
         vertex 4.033788e-01 -7.915069e-01 1.850000e-02
         vertex 4.033788e-01 -7.915069e-01 -1.850000e-02
      endloop
   endfacet
   facet normal -9.355874e-01 -3.530953e-01 0.000000e+00
      outer loop
         vertex 4.033788e-01 -7.915069e-01 -1.850000e-02
         vertex 4.033788e-01 -7.915069e-01 1.850000e-02
         vertex 3.721812e-01 -7.088435e-01 1.850000e-02
      endloop
   endfacet
   facet normal -9.355874e-01 -3.530953e-01 0.000000e+00
      outer loop
         vertex 4.033788e-01 -7.915069e-01 -1.850000e-02
         vertex 3.721812e-01 -7.088435e-01 1.850000e-02
         vertex 3.721812e-01 -7.088435e-01 -1.850000e-02
      endloop
   endfacet
   facet normal -9.628434e-01 -2.700602e-01 0.000000e+00
      outer loop
         vertex 3.721812e-01 -7.088435e-01 -1.850000e-02
         vertex 3.721812e-01 -7.088435e-01 1.850000e-02
         vertex 3.469090e-01 -6.187406e-01 1.850000e-02
      endloop
   endfacet
   facet normal -9.628434e-01 -2.700602e-01 0.000000e+00
      outer loop
         vertex 3.721812e-01 -7.088435e-01 -1.850000e-02
         vertex 3.469090e-01 -6.187406e-01 1.850000e-02
         vertex 3.469090e-01 -6.187406e-01 -1.850000e-02
      endloop
   endfacet
   facet normal -9.824205e-01 -1.866813e-01 0.000000e+00
      outer loop
         vertex 3.469090e-01 -6.187406e-01 -1.850000e-02
         vertex 3.469090e-01 -6.187406e-01 1.850000e-02
         vertex 3.287954e-01 -5.234169e-01 1.850000e-02
      endloop
   endfacet
   facet normal -9.824205e-01 -1.866813e-01 0.000000e+00
      outer loop
         vertex 3.469090e-01 -6.187406e-01 -1.850000e-02
         vertex 3.287954e-01 -5.234169e-01 1.850000e-02
         vertex 3.287954e-01 -5.234169e-01 -1.850000e-02
      endloop
   endfacet
   facet normal -9.948547e-01 -1.013123e-01 0.000000e+00
      outer loop
         vertex 3.287954e-01 -5.234169e-01 -1.850000e-02
         vertex 3.287954e-01 -5.234169e-01 1.850000e-02
         vertex 3.188532e-01 -4.257870e-01 1.850000e-02
      endloop
   endfacet
   facet normal -9.948547e-01 -1.013123e-01 0.000000e+00
      outer loop
         vertex 3.287954e-01 -5.234169e-01 -1.850000e-02
         vertex 3.188532e-01 -4.257870e-01 1.850000e-02
         vertex 3.188532e-01 -4.257870e-01 -1.850000e-02
      endloop
   endfacet
   facet normal -9.991296e-01 -4.171418e-02 0.000000e+00
      outer loop
         vertex 3.188532e-01 -4.257870e-01 -1.850000e-02
         vertex 3.188532e-01 -4.257870e-01 1.850000e-02
         vertex 3.174311e-01 -3.917257e-01 1.850000e-02
      endloop
   endfacet
   facet normal -9.991296e-01 -4.171418e-02 0.000000e+00
      outer loop
         vertex 3.188532e-01 -4.257870e-01 -1.850000e-02
         vertex 3.174311e-01 -3.917257e-01 1.850000e-02
         vertex 3.174311e-01 -3.917257e-01 -1.850000e-02
      endloop
   endfacet
   facet normal 0.000000e+00 0.000000e+00 -1.000000e+00
      outer loop
         vertex 7.060334e-01 5.756347e-02 -1.850000e-02
         vertex 1.065726e+00 1.033951e-01 -1.850000e-02
         vertex 2.176490e+00 -8.093992e-01 -1.850000e-02
      endloop
   endfacet
   facet normal 0.000000e+00 0.000000e+00 -1.000000e+00
      outer loop
         vertex 2.176490e+00 -8.093992e-01 -1.850000e-02
         vertex 1.065726e+00 1.033951e-01 -1.850000e-02
         vertex 1.459181e+00 1.450860e-01 -1.850000e-02
      endloop
   endfacet
   facet normal 0.000000e+00 0.000000e+00 -1.000000e+00
      outer loop
         vertex 2.176490e+00 -8.093992e-01 -1.850000e-02
         vertex 1.459181e+00 1.450860e-01 -1.850000e-02
         vertex 2.219627e+00 -7.840203e-01 -1.850000e-02
      endloop
   endfacet
   facet normal 0.000000e+00 0.000000e+00 -1.000000e+00
      outer loop
         vertex 2.219627e+00 -7.840203e-01 -1.850000e-02
         vertex 1.459181e+00 1.450860e-01 -1.850000e-02
         vertex 1.704348e+00 1.689662e-01 -1.850000e-02
      endloop
   endfacet
   facet normal 0.000000e+00 0.000000e+00 -1.000000e+00
      outer loop
         vertex 2.219627e+00 -7.840203e-01 -1.850000e-02
         vertex 1.704348e+00 1.689662e-01 -1.850000e-02
         vertex 2.305018e+00 -7.401207e-01 -1.850000e-02
      endloop
   endfacet
   facet normal 0.000000e+00 0.000000e+00 -1.000000e+00
      outer loop
         vertex 2.305018e+00 -7.401207e-01 -1.850000e-02
         vertex 1.704348e+00 1.689662e-01 -1.850000e-02
         vertex 1.995908e+00 1.856335e-01 -1.850000e-02
      endloop
   endfacet
   facet normal 0.000000e+00 0.000000e+00 -1.000000e+00
      outer loop
         vertex 2.305018e+00 -7.401207e-01 -1.850000e-02
         vertex 1.995908e+00 1.856335e-01 -1.850000e-02
         vertex 2.414141e+00 -6.910785e-01 -1.850000e-02
      endloop
   endfacet
   facet normal 0.000000e+00 0.000000e+00 -1.000000e+00
      outer loop
         vertex 3.174311e-01 -3.917257e-01 -1.850000e-02
         vertex 3.078272e-01 -2.294962e-01 -1.850000e-02
         vertex 7.060334e-01 5.756347e-02 -1.850000e-02
      endloop
   endfacet
   facet normal 0.000000e+00 0.000000e+00 -1.000000e+00
      outer loop
         vertex 7.060334e-01 5.756347e-02 -1.850000e-02
         vertex 3.078272e-01 -2.294962e-01 -1.850000e-02
         vertex 3.068161e-01 -6.847640e-02 -1.850000e-02
      endloop
   endfacet
   facet normal 0.000000e+00 0.000000e+00 -1.000000e+00
      outer loop
         vertex 7.060334e-01 5.756347e-02 -1.850000e-02
         vertex 3.068161e-01 -6.847640e-02 -1.850000e-02
         vertex 3.090000e-01 2.220446e-16 -1.850000e-02
      endloop
   endfacet
   facet normal -0.000000e+00 0.000000e+00 -1.000000e+00
      outer loop
         vertex 1.995216e+00 -1.024204e+00 -1.850000e-02
         vertex 1.920599e+00 -1.070689e+00 -1.850000e-02
         vertex 3.174311e-01 -3.917257e-01 -1.850000e-02
      endloop
   endfacet
   facet normal -0.000000e+00 0.000000e+00 -1.000000e+00
      outer loop
         vertex 1.245533e+00 -1.224190e+00 -1.850000e-02
         vertex 1.103804e+00 -1.226909e+00 -1.850000e-02
         vertex 3.174311e-01 -3.917257e-01 -1.850000e-02
      endloop
   endfacet
   facet normal 0.000000e+00 0.000000e+00 -1.000000e+00
      outer loop
         vertex 3.174311e-01 -3.917257e-01 -1.850000e-02
         vertex 1.103804e+00 -1.226909e+00 -1.850000e-02
         vertex 1.063584e+00 -1.226211e+00 -1.850000e-02
      endloop
   endfacet
   facet normal 0.000000e+00 0.000000e+00 -1.000000e+00
      outer loop
         vertex 2.414141e+00 -6.910785e-01 -1.850000e-02
         vertex 1.995908e+00 1.856335e-01 -1.850000e-02
         vertex 2.522260e+00 -6.464235e-01 -1.850000e-02
      endloop
   endfacet
   facet normal 0.000000e+00 0.000000e+00 -1.000000e+00
      outer loop
         vertex 2.522260e+00 -6.464235e-01 -1.850000e-02
         vertex 1.995908e+00 1.856335e-01 -1.850000e-02
         vertex 2.274164e+00 1.931186e-01 -1.850000e-02
      endloop
   endfacet
   facet normal 0.000000e+00 0.000000e+00 -1.000000e+00
      outer loop
         vertex 2.522260e+00 -6.464235e-01 -1.850000e-02
         vertex 2.274164e+00 1.931186e-01 -1.850000e-02
         vertex 2.756683e+00 -5.533358e-01 -1.850000e-02
      endloop
   endfacet
   facet normal 0.000000e+00 0.000000e+00 -1.000000e+00
      outer loop
         vertex 2.756683e+00 -5.533358e-01 -1.850000e-02
         vertex 2.274164e+00 1.931186e-01 -1.850000e-02
         vertex 2.533258e+00 1.915655e-01 -1.850000e-02
      endloop
   endfacet
   facet normal 0.000000e+00 0.000000e+00 -1.000000e+00
      outer loop
         vertex 2.756683e+00 -5.533358e-01 -1.850000e-02
         vertex 2.533258e+00 1.915655e-01 -1.850000e-02
         vertex 2.918258e+00 -4.852136e-01 -1.850000e-02
      endloop
   endfacet
   facet normal -0.000000e+00 0.000000e+00 -1.000000e+00
      outer loop
         vertex 1.637951e+00 -1.169441e+00 -1.850000e-02
         vertex 1.512705e+00 -1.195160e+00 -1.850000e-02
         vertex 3.174311e-01 -3.917257e-01 -1.850000e-02
      endloop
   endfacet
   facet normal 0.000000e+00 0.000000e+00 -1.000000e+00
      outer loop
         vertex 3.174311e-01 -3.917257e-01 -1.850000e-02
         vertex 1.512705e+00 -1.195160e+00 -1.850000e-02
         vertex 1.381875e+00 -1.213506e+00 -1.850000e-02
      endloop
   endfacet
   facet normal 0.000000e+00 0.000000e+00 -1.000000e+00
      outer loop
         vertex 3.174311e-01 -3.917257e-01 -1.850000e-02
         vertex 1.381875e+00 -1.213506e+00 -1.850000e-02
         vertex 1.245533e+00 -1.224190e+00 -1.850000e-02
      endloop
   endfacet
   facet normal 0.000000e+00 0.000000e+00 -1.000000e+00
      outer loop
         vertex 3.469090e-01 -6.187406e-01 -1.850000e-02
         vertex 3.287954e-01 -5.234169e-01 -1.850000e-02
         vertex 5.770783e-01 -1.039298e+00 -1.850000e-02
      endloop
   endfacet
   facet normal 0.000000e+00 0.000000e+00 -1.000000e+00
      outer loop
         vertex 5.770783e-01 -1.039298e+00 -1.850000e-02
         vertex 3.287954e-01 -5.234169e-01 -1.850000e-02
         vertex 3.188532e-01 -4.257870e-01 -1.850000e-02
      endloop
   endfacet
   facet normal 0.000000e+00 0.000000e+00 -1.000000e+00
      outer loop
         vertex 5.770783e-01 -1.039298e+00 -1.850000e-02
         vertex 3.188532e-01 -4.257870e-01 -1.850000e-02
         vertex 3.174311e-01 -3.917257e-01 -1.850000e-02
      endloop
   endfacet
   facet normal 0.000000e+00 0.000000e+00 -1.000000e+00
      outer loop
         vertex 1.063584e+00 -1.226211e+00 -1.850000e-02
         vertex 9.700307e-01 -1.213718e+00 -1.850000e-02
         vertex 3.174311e-01 -3.917257e-01 -1.850000e-02
      endloop
   endfacet
   facet normal 0.000000e+00 0.000000e+00 -1.000000e+00
      outer loop
         vertex 3.174311e-01 -3.917257e-01 -1.850000e-02
         vertex 9.700307e-01 -1.213718e+00 -1.850000e-02
         vertex 8.809890e-01 -1.193235e+00 -1.850000e-02
      endloop
   endfacet
   facet normal 0.000000e+00 0.000000e+00 -1.000000e+00
      outer loop
         vertex 3.174311e-01 -3.917257e-01 -1.850000e-02
         vertex 8.809890e-01 -1.193235e+00 -1.850000e-02
         vertex 7.973449e-01 -1.165206e+00 -1.850000e-02
      endloop
   endfacet
   facet normal 0.000000e+00 0.000000e+00 -1.000000e+00
      outer loop
         vertex 4.392368e-01 -8.652958e-01 -1.850000e-02
         vertex 4.033788e-01 -7.915069e-01 -1.850000e-02
         vertex 5.770783e-01 -1.039298e+00 -1.850000e-02
      endloop
   endfacet
   facet normal 0.000000e+00 0.000000e+00 -1.000000e+00
      outer loop
         vertex 5.770783e-01 -1.039298e+00 -1.850000e-02
         vertex 4.033788e-01 -7.915069e-01 -1.850000e-02
         vertex 3.721812e-01 -7.088435e-01 -1.850000e-02
      endloop
   endfacet
   facet normal 0.000000e+00 0.000000e+00 -1.000000e+00
      outer loop
         vertex 5.770783e-01 -1.039298e+00 -1.850000e-02
         vertex 3.721812e-01 -7.088435e-01 -1.850000e-02
         vertex 3.469090e-01 -6.187406e-01 -1.850000e-02
      endloop
   endfacet
   facet normal -0.000000e+00 0.000000e+00 -1.000000e+00
      outer loop
         vertex 2.136437e+00 -8.906465e-01 -1.850000e-02
         vertex 2.101196e+00 -9.344078e-01 -1.850000e-02
         vertex 3.174311e-01 -3.917257e-01 -1.850000e-02
      endloop
   endfacet
   facet normal 0.000000e+00 0.000000e+00 -1.000000e+00
      outer loop
         vertex 3.174311e-01 -3.917257e-01 -1.850000e-02
         vertex 2.101196e+00 -9.344078e-01 -1.850000e-02
         vertex 2.054724e+00 -9.788200e-01 -1.850000e-02
      endloop
   endfacet
   facet normal 0.000000e+00 0.000000e+00 -1.000000e+00
      outer loop
         vertex 3.174311e-01 -3.917257e-01 -1.850000e-02
         vertex 2.054724e+00 -9.788200e-01 -1.850000e-02
         vertex 1.995216e+00 -1.024204e+00 -1.850000e-02
      endloop
   endfacet
   facet normal 0.000000e+00 0.000000e+00 -1.000000e+00
      outer loop
         vertex 7.973449e-01 -1.165206e+00 -1.850000e-02
         vertex 7.185688e-01 -1.129794e+00 -1.850000e-02
         vertex 3.174311e-01 -3.917257e-01 -1.850000e-02
      endloop
   endfacet
   facet normal 0.000000e+00 0.000000e+00 -1.000000e+00
      outer loop
         vertex 3.174311e-01 -3.917257e-01 -1.850000e-02
         vertex 7.185688e-01 -1.129794e+00 -1.850000e-02
         vertex 6.441829e-01 -1.087009e+00 -1.850000e-02
      endloop
   endfacet
   facet normal 0.000000e+00 0.000000e+00 -1.000000e+00
      outer loop
         vertex 3.174311e-01 -3.917257e-01 -1.850000e-02
         vertex 6.441829e-01 -1.087009e+00 -1.850000e-02
         vertex 5.770783e-01 -1.039298e+00 -1.850000e-02
      endloop
   endfacet
   facet normal 0.000000e+00 0.000000e+00 -1.000000e+00
      outer loop
         vertex 2.533258e+00 1.915655e-01 -1.850000e-02
         vertex 2.682356e+00 1.862938e-01 -1.850000e-02
         vertex 2.918258e+00 -4.852136e-01 -1.850000e-02
      endloop
   endfacet
   facet normal 0.000000e+00 0.000000e+00 -1.000000e+00
      outer loop
         vertex 2.918258e+00 -4.852136e-01 -1.850000e-02
         vertex 2.682356e+00 1.862938e-01 -1.850000e-02
         vertex 2.860394e+00 1.698412e-01 -1.850000e-02
      endloop
   endfacet
   facet normal 0.000000e+00 0.000000e+00 -1.000000e+00
      outer loop
         vertex 2.918258e+00 -4.852136e-01 -1.850000e-02
         vertex 2.860394e+00 1.698412e-01 -1.850000e-02
         vertex 3.022183e+00 -4.354658e-01 -1.850000e-02
      endloop
   endfacet
   facet normal 0.000000e+00 0.000000e+00 -1.000000e+00
      outer loop
         vertex 3.022183e+00 -4.354658e-01 -1.850000e-02
         vertex 2.860394e+00 1.698412e-01 -1.850000e-02
         vertex 3.113950e+00 -3.845547e-01 -1.850000e-02
      endloop
   endfacet
   facet normal -0.000000e+00 0.000000e+00 -1.000000e+00
      outer loop
         vertex 1.920599e+00 -1.070689e+00 -1.850000e-02
         vertex 1.872970e+00 -1.096383e+00 -1.850000e-02
         vertex 3.174311e-01 -3.917257e-01 -1.850000e-02
      endloop
   endfacet
   facet normal 0.000000e+00 0.000000e+00 -1.000000e+00
      outer loop
         vertex 3.174311e-01 -3.917257e-01 -1.850000e-02
         vertex 1.872970e+00 -1.096383e+00 -1.850000e-02
         vertex 1.757576e+00 -1.136615e+00 -1.850000e-02
      endloop
   endfacet
   facet normal 0.000000e+00 0.000000e+00 -1.000000e+00
      outer loop
         vertex 3.174311e-01 -3.917257e-01 -1.850000e-02
         vertex 1.757576e+00 -1.136615e+00 -1.850000e-02
         vertex 1.637951e+00 -1.169441e+00 -1.850000e-02
      endloop
   endfacet
   facet normal -0.000000e+00 -0.000000e+00 -1.000000e+00
      outer loop
         vertex 3.276706e+00 7.035340e-02 -1.850000e-02
         vertex 3.292223e+00 -2.561845e-01 -1.850000e-02
         vertex 3.194943e+00 1.010342e-01 -1.850000e-02
      endloop
   endfacet
   facet normal -0.000000e+00 -0.000000e+00 -1.000000e+00
      outer loop
         vertex 3.194943e+00 1.010342e-01 -1.850000e-02
         vertex 3.292223e+00 -2.561845e-01 -1.850000e-02
         vertex 3.100879e+00 1.278222e-01 -1.850000e-02
      endloop
   endfacet
   facet normal 0.000000e+00 -0.000000e+00 -1.000000e+00
      outer loop
         vertex 7.060334e-01 5.756347e-02 -1.850000e-02
         vertex 2.176490e+00 -8.093992e-01 -1.850000e-02
         vertex 3.174311e-01 -3.917257e-01 -1.850000e-02
      endloop
   endfacet
   facet normal 0.000000e+00 0.000000e+00 -1.000000e+00
      outer loop
         vertex 3.174311e-01 -3.917257e-01 -1.850000e-02
         vertex 2.176490e+00 -8.093992e-01 -1.850000e-02
         vertex 2.160383e+00 -8.500760e-01 -1.850000e-02
      endloop
   endfacet
   facet normal 0.000000e+00 0.000000e+00 -1.000000e+00
      outer loop
         vertex 3.174311e-01 -3.917257e-01 -1.850000e-02
         vertex 2.160383e+00 -8.500760e-01 -1.850000e-02
         vertex 2.136437e+00 -8.906465e-01 -1.850000e-02
      endloop
   endfacet
   facet normal 0.000000e+00 0.000000e+00 -1.000000e+00
      outer loop
         vertex 5.661487e-01 -1.030607e+00 -1.850000e-02
         vertex 5.204842e-01 -9.839155e-01 -1.850000e-02
         vertex 5.770783e-01 -1.039298e+00 -1.850000e-02
      endloop
   endfacet
   facet normal 0.000000e+00 0.000000e+00 -1.000000e+00
      outer loop
         vertex 5.770783e-01 -1.039298e+00 -1.850000e-02
         vertex 5.204842e-01 -9.839155e-01 -1.850000e-02
         vertex 4.786060e-01 -9.295009e-01 -1.850000e-02
      endloop
   endfacet
   facet normal 0.000000e+00 0.000000e+00 -1.000000e+00
      outer loop
         vertex 5.770783e-01 -1.039298e+00 -1.850000e-02
         vertex 4.786060e-01 -9.295009e-01 -1.850000e-02
         vertex 4.392368e-01 -8.652958e-01 -1.850000e-02
      endloop
   endfacet
   facet normal 0.000000e+00 0.000000e+00 -1.000000e+00
      outer loop
         vertex 3.276706e+00 7.035340e-02 -1.850000e-02
         vertex 3.402380e+00 -1.138901e-01 -1.850000e-02
         vertex 3.393807e+00 -1.361381e-01 -1.850000e-02
      endloop
   endfacet
   facet normal -0.000000e+00 0.000000e+00 -1.000000e+00
      outer loop
         vertex 3.393807e+00 -1.361381e-01 -1.850000e-02
         vertex 3.375493e+00 -1.678949e-01 -1.850000e-02
         vertex 3.276706e+00 7.035340e-02 -1.850000e-02
      endloop
   endfacet
   facet normal 0.000000e+00 0.000000e+00 -1.000000e+00
      outer loop
         vertex 3.276706e+00 7.035340e-02 -1.850000e-02
         vertex 3.375493e+00 -1.678949e-01 -1.850000e-02
         vertex 3.341149e+00 -2.101411e-01 -1.850000e-02
      endloop
   endfacet
   facet normal 0.000000e+00 0.000000e+00 -1.000000e+00
      outer loop
         vertex 3.276706e+00 7.035340e-02 -1.850000e-02
         vertex 3.341149e+00 -2.101411e-01 -1.850000e-02
         vertex 3.292223e+00 -2.561845e-01 -1.850000e-02
      endloop
   endfacet
   facet normal -0.000000e+00 -0.000000e+00 -1.000000e+00
      outer loop
         vertex 3.100879e+00 1.278222e-01 -1.850000e-02
         vertex 3.292223e+00 -2.561845e-01 -1.850000e-02
         vertex 2.991018e+00 1.507729e-01 -1.850000e-02
      endloop
   endfacet
   facet normal 0.000000e+00 0.000000e+00 -1.000000e+00
      outer loop
         vertex 2.991018e+00 1.507729e-01 -1.850000e-02
         vertex 3.292223e+00 -2.561845e-01 -1.850000e-02
         vertex 3.285180e+00 -2.620696e-01 -1.850000e-02
      endloop
   endfacet
   facet normal -0.000000e+00 -0.000000e+00 -1.000000e+00
      outer loop
         vertex 2.991018e+00 1.507729e-01 -1.850000e-02
         vertex 3.285180e+00 -2.620696e-01 -1.850000e-02
         vertex 2.860394e+00 1.698412e-01 -1.850000e-02
      endloop
   endfacet
   facet normal 0.000000e+00 0.000000e+00 -1.000000e+00
      outer loop
         vertex 2.860394e+00 1.698412e-01 -1.850000e-02
         vertex 3.285180e+00 -2.620696e-01 -1.850000e-02
         vertex 3.201021e+00 -3.274867e-01 -1.850000e-02
      endloop
   endfacet
   facet normal 0.000000e+00 0.000000e+00 -1.000000e+00
      outer loop
         vertex 2.860394e+00 1.698412e-01 -1.850000e-02
         vertex 3.201021e+00 -3.274867e-01 -1.850000e-02
         vertex 3.113950e+00 -3.845547e-01 -1.850000e-02
      endloop
   endfacet
   facet normal 0.000000e+00 0.000000e+00 -1.000000e+00
      outer loop
         vertex 3.379408e+00 -1.451612e-03 -1.850000e-02
         vertex 3.276706e+00 7.035340e-02 -1.850000e-02
         vertex 3.359271e+00 2.008907e-02 -1.850000e-02
      endloop
   endfacet
   facet normal 0.000000e+00 0.000000e+00 -1.000000e+00
      outer loop
         vertex 3.359271e+00 2.008907e-02 -1.850000e-02
         vertex 3.276706e+00 7.035340e-02 -1.850000e-02
         vertex 3.318904e+00 5.101740e-02 -1.850000e-02
      endloop
   endfacet
   facet normal -0.000000e+00 -0.000000e+00 -1.000000e+00
      outer loop
         vertex 3.379408e+00 -1.451612e-03 -1.850000e-02
         vertex 3.393422e+00 -2.233393e-02 -1.850000e-02
         vertex 3.276706e+00 7.035340e-02 -1.850000e-02
      endloop
   endfacet
   facet normal 0.000000e+00 0.000000e+00 -1.000000e+00
      outer loop
         vertex 3.276706e+00 7.035340e-02 -1.850000e-02
         vertex 3.393422e+00 -2.233393e-02 -1.850000e-02
         vertex 3.401361e+00 -3.980076e-02 -1.850000e-02
      endloop
   endfacet
   facet normal 0.000000e+00 0.000000e+00 -1.000000e+00
      outer loop
         vertex 3.276706e+00 7.035340e-02 -1.850000e-02
         vertex 3.401361e+00 -3.980076e-02 -1.850000e-02
         vertex 3.406023e+00 -5.669867e-02 -1.850000e-02
      endloop
   endfacet
   facet normal -0.000000e+00 -0.000000e+00 -1.000000e+00
      outer loop
         vertex 3.406023e+00 -5.669867e-02 -1.850000e-02
         vertex 3.407967e+00 -7.498893e-02 -1.850000e-02
         vertex 3.276706e+00 7.035340e-02 -1.850000e-02
      endloop
   endfacet
   facet normal 0.000000e+00 0.000000e+00 -1.000000e+00
      outer loop
         vertex 3.276706e+00 7.035340e-02 -1.850000e-02
         vertex 3.407967e+00 -7.498893e-02 -1.850000e-02
         vertex 3.406795e+00 -9.410758e-02 -1.850000e-02
      endloop
   endfacet
   facet normal 0.000000e+00 0.000000e+00 -1.000000e+00
      outer loop
         vertex 3.276706e+00 7.035340e-02 -1.850000e-02
         vertex 3.406795e+00 -9.410758e-02 -1.850000e-02
         vertex 3.402380e+00 -1.138901e-01 -1.850000e-02
      endloop
   endfacet
   facet normal 0.000000e+00 0.000000e+00 1.000000e+00
      outer loop
         vertex 3.100879e+00 1.278222e-01 1.850000e-02
         vertex 2.991018e+00 1.507729e-01 1.850000e-02
         vertex 3.292223e+00 -2.561845e-01 1.850000e-02
      endloop
   endfacet
   facet normal 0.000000e+00 0.000000e+00 1.000000e+00
      outer loop
         vertex 1.995908e+00 1.856335e-01 1.850000e-02
         vertex 1.704348e+00 1.689662e-01 1.850000e-02
         vertex 2.219627e+00 -7.840203e-01 1.850000e-02
      endloop
   endfacet
   facet normal 0.000000e+00 0.000000e+00 1.000000e+00
      outer loop
         vertex 2.219627e+00 -7.840203e-01 1.850000e-02
         vertex 1.704348e+00 1.689662e-01 1.850000e-02
         vertex 1.459181e+00 1.450860e-01 1.850000e-02
      endloop
   endfacet
   facet normal 0.000000e+00 0.000000e+00 1.000000e+00
      outer loop
         vertex 2.219627e+00 -7.840203e-01 1.850000e-02
         vertex 1.459181e+00 1.450860e-01 1.850000e-02
         vertex 2.176490e+00 -8.093992e-01 1.850000e-02
      endloop
   endfacet
   facet normal 0.000000e+00 0.000000e+00 1.000000e+00
      outer loop
         vertex 7.060334e-01 5.756347e-02 1.850000e-02
         vertex 3.090000e-01 2.220446e-16 1.850000e-02
         vertex 3.068161e-01 -6.847640e-02 1.850000e-02
      endloop
   endfacet
   facet normal -0.000000e+00 0.000000e+00 1.000000e+00
      outer loop
         vertex 3.068161e-01 -6.847640e-02 1.850000e-02
         vertex 3.078272e-01 -2.294962e-01 1.850000e-02
         vertex 7.060334e-01 5.756347e-02 1.850000e-02
      endloop
   endfacet
   facet normal 0.000000e+00 0.000000e+00 1.000000e+00
      outer loop
         vertex 7.060334e-01 5.756347e-02 1.850000e-02
         vertex 3.078272e-01 -2.294962e-01 1.850000e-02
         vertex 3.174311e-01 -3.917257e-01 1.850000e-02
      endloop
   endfacet
   facet normal -0.000000e+00 0.000000e+00 1.000000e+00
      outer loop
         vertex 7.060334e-01 5.756347e-02 1.850000e-02
         vertex 3.174311e-01 -3.917257e-01 1.850000e-02
         vertex 1.065726e+00 1.033951e-01 1.850000e-02
      endloop
   endfacet
   facet normal 0.000000e+00 0.000000e+00 1.000000e+00
      outer loop
         vertex 3.174311e-01 -3.917257e-01 1.850000e-02
         vertex 1.245533e+00 -1.224190e+00 1.850000e-02
         vertex 1.381875e+00 -1.213506e+00 1.850000e-02
      endloop
   endfacet
   facet normal -0.000000e+00 -0.000000e+00 1.000000e+00
      outer loop
         vertex 9.700307e-01 -1.213718e+00 1.850000e-02
         vertex 1.063584e+00 -1.226211e+00 1.850000e-02
         vertex 3.174311e-01 -3.917257e-01 1.850000e-02
      endloop
   endfacet
   facet normal 0.000000e+00 0.000000e+00 1.000000e+00
      outer loop
         vertex 3.174311e-01 -3.917257e-01 1.850000e-02
         vertex 1.063584e+00 -1.226211e+00 1.850000e-02
         vertex 1.103804e+00 -1.226909e+00 1.850000e-02
      endloop
   endfacet
   facet normal 0.000000e+00 0.000000e+00 1.000000e+00
      outer loop
         vertex 3.174311e-01 -3.917257e-01 1.850000e-02
         vertex 1.103804e+00 -1.226909e+00 1.850000e-02
         vertex 1.245533e+00 -1.224190e+00 1.850000e-02
      endloop
   endfacet
   facet normal -0.000000e+00 -0.000000e+00 1.000000e+00
      outer loop
         vertex 3.469090e-01 -6.187406e-01 1.850000e-02
         vertex 5.770783e-01 -1.039298e+00 1.850000e-02
         vertex 3.287954e-01 -5.234169e-01 1.850000e-02
      endloop
   endfacet
   facet normal -0.000000e+00 -0.000000e+00 1.000000e+00
      outer loop
         vertex 3.287954e-01 -5.234169e-01 1.850000e-02
         vertex 5.770783e-01 -1.039298e+00 1.850000e-02
         vertex 3.188532e-01 -4.257870e-01 1.850000e-02
      endloop
   endfacet
   facet normal -0.000000e+00 -0.000000e+00 1.000000e+00
      outer loop
         vertex 7.185688e-01 -1.129794e+00 1.850000e-02
         vertex 7.973449e-01 -1.165206e+00 1.850000e-02
         vertex 3.174311e-01 -3.917257e-01 1.850000e-02
      endloop
   endfacet
   facet normal 0.000000e+00 0.000000e+00 1.000000e+00
      outer loop
         vertex 3.174311e-01 -3.917257e-01 1.850000e-02
         vertex 7.973449e-01 -1.165206e+00 1.850000e-02
         vertex 8.809890e-01 -1.193235e+00 1.850000e-02
      endloop
   endfacet
   facet normal 0.000000e+00 0.000000e+00 1.000000e+00
      outer loop
         vertex 3.174311e-01 -3.917257e-01 1.850000e-02
         vertex 8.809890e-01 -1.193235e+00 1.850000e-02
         vertex 9.700307e-01 -1.213718e+00 1.850000e-02
      endloop
   endfacet
   facet normal 0.000000e+00 0.000000e+00 1.000000e+00
      outer loop
         vertex 3.469090e-01 -6.187406e-01 1.850000e-02
         vertex 3.721812e-01 -7.088435e-01 1.850000e-02
         vertex 5.770783e-01 -1.039298e+00 1.850000e-02
      endloop
   endfacet
   facet normal 0.000000e+00 0.000000e+00 1.000000e+00
      outer loop
         vertex 5.770783e-01 -1.039298e+00 1.850000e-02
         vertex 3.721812e-01 -7.088435e-01 1.850000e-02
         vertex 4.033788e-01 -7.915069e-01 1.850000e-02
      endloop
   endfacet
   facet normal 0.000000e+00 0.000000e+00 1.000000e+00
      outer loop
         vertex 5.770783e-01 -1.039298e+00 1.850000e-02
         vertex 4.033788e-01 -7.915069e-01 1.850000e-02
         vertex 4.392368e-01 -8.652958e-01 1.850000e-02
      endloop
   endfacet
   facet normal -0.000000e+00 -0.000000e+00 1.000000e+00
      outer loop
         vertex 3.188532e-01 -4.257870e-01 1.850000e-02
         vertex 5.770783e-01 -1.039298e+00 1.850000e-02
         vertex 3.174311e-01 -3.917257e-01 1.850000e-02
      endloop
   endfacet
   facet normal 0.000000e+00 0.000000e+00 1.000000e+00
      outer loop
         vertex 3.174311e-01 -3.917257e-01 1.850000e-02
         vertex 5.770783e-01 -1.039298e+00 1.850000e-02
         vertex 6.441829e-01 -1.087009e+00 1.850000e-02
      endloop
   endfacet
   facet normal 0.000000e+00 0.000000e+00 1.000000e+00
      outer loop
         vertex 3.174311e-01 -3.917257e-01 1.850000e-02
         vertex 6.441829e-01 -1.087009e+00 1.850000e-02
         vertex 7.185688e-01 -1.129794e+00 1.850000e-02
      endloop
   endfacet
   facet normal 0.000000e+00 -0.000000e+00 1.000000e+00
      outer loop
         vertex 1.381875e+00 -1.213506e+00 1.850000e-02
         vertex 1.512705e+00 -1.195160e+00 1.850000e-02
         vertex 3.174311e-01 -3.917257e-01 1.850000e-02
      endloop
   endfacet
   facet normal 0.000000e+00 0.000000e+00 1.000000e+00
      outer loop
         vertex 3.174311e-01 -3.917257e-01 1.850000e-02
         vertex 1.512705e+00 -1.195160e+00 1.850000e-02
         vertex 1.637951e+00 -1.169441e+00 1.850000e-02
      endloop
   endfacet
   facet normal 0.000000e+00 0.000000e+00 1.000000e+00
      outer loop
         vertex 3.174311e-01 -3.917257e-01 1.850000e-02
         vertex 1.637951e+00 -1.169441e+00 1.850000e-02
         vertex 1.757576e+00 -1.136615e+00 1.850000e-02
      endloop
   endfacet
   facet normal 0.000000e+00 -0.000000e+00 1.000000e+00
      outer loop
         vertex 1.757576e+00 -1.136615e+00 1.850000e-02
         vertex 1.872970e+00 -1.096383e+00 1.850000e-02
         vertex 3.174311e-01 -3.917257e-01 1.850000e-02
      endloop
   endfacet
   facet normal 0.000000e+00 0.000000e+00 1.000000e+00
      outer loop
         vertex 3.174311e-01 -3.917257e-01 1.850000e-02
         vertex 1.872970e+00 -1.096383e+00 1.850000e-02
         vertex 1.920599e+00 -1.070689e+00 1.850000e-02
      endloop
   endfacet
   facet normal 0.000000e+00 0.000000e+00 1.000000e+00
      outer loop
         vertex 3.174311e-01 -3.917257e-01 1.850000e-02
         vertex 1.920599e+00 -1.070689e+00 1.850000e-02
         vertex 1.995216e+00 -1.024204e+00 1.850000e-02
      endloop
   endfacet
   facet normal 0.000000e+00 -0.000000e+00 1.000000e+00
      outer loop
         vertex 1.995216e+00 -1.024204e+00 1.850000e-02
         vertex 2.054724e+00 -9.788200e-01 1.850000e-02
         vertex 3.174311e-01 -3.917257e-01 1.850000e-02
      endloop
   endfacet
   facet normal 0.000000e+00 0.000000e+00 1.000000e+00
      outer loop
         vertex 3.174311e-01 -3.917257e-01 1.850000e-02
         vertex 2.054724e+00 -9.788200e-01 1.850000e-02
         vertex 2.101196e+00 -9.344078e-01 1.850000e-02
      endloop
   endfacet
   facet normal 0.000000e+00 0.000000e+00 1.000000e+00
      outer loop
         vertex 3.174311e-01 -3.917257e-01 1.850000e-02
         vertex 2.101196e+00 -9.344078e-01 1.850000e-02
         vertex 2.136437e+00 -8.906465e-01 1.850000e-02
      endloop
   endfacet
   facet normal 0.000000e+00 -0.000000e+00 1.000000e+00
      outer loop
         vertex 2.219627e+00 -7.840203e-01 1.850000e-02
         vertex 2.305018e+00 -7.401207e-01 1.850000e-02
         vertex 1.995908e+00 1.856335e-01 1.850000e-02
      endloop
   endfacet
   facet normal 0.000000e+00 0.000000e+00 1.000000e+00
      outer loop
         vertex 1.995908e+00 1.856335e-01 1.850000e-02
         vertex 2.305018e+00 -7.401207e-01 1.850000e-02
         vertex 2.414141e+00 -6.910785e-01 1.850000e-02
      endloop
   endfacet
   facet normal -0.000000e+00 0.000000e+00 1.000000e+00
      outer loop
         vertex 1.995908e+00 1.856335e-01 1.850000e-02
         vertex 2.414141e+00 -6.910785e-01 1.850000e-02
         vertex 2.274164e+00 1.931186e-01 1.850000e-02
      endloop
   endfacet
   facet normal 0.000000e+00 0.000000e+00 1.000000e+00
      outer loop
         vertex 2.274164e+00 1.931186e-01 1.850000e-02
         vertex 2.414141e+00 -6.910785e-01 1.850000e-02
         vertex 2.522260e+00 -6.464235e-01 1.850000e-02
      endloop
   endfacet
   facet normal 0.000000e+00 0.000000e+00 1.000000e+00
      outer loop
         vertex 2.274164e+00 1.931186e-01 1.850000e-02
         vertex 2.522260e+00 -6.464235e-01 1.850000e-02
         vertex 2.533258e+00 1.915655e-01 1.850000e-02
      endloop
   endfacet
   facet normal 0.000000e+00 0.000000e+00 1.000000e+00
      outer loop
         vertex 2.533258e+00 1.915655e-01 1.850000e-02
         vertex 2.522260e+00 -6.464235e-01 1.850000e-02
         vertex 2.756683e+00 -5.533358e-01 1.850000e-02
      endloop
   endfacet
   facet normal 0.000000e+00 0.000000e+00 1.000000e+00
      outer loop
         vertex 2.533258e+00 1.915655e-01 1.850000e-02
         vertex 2.756683e+00 -5.533358e-01 1.850000e-02
         vertex 2.682356e+00 1.862938e-01 1.850000e-02
      endloop
   endfacet
   facet normal 0.000000e+00 0.000000e+00 1.000000e+00
      outer loop
         vertex 2.682356e+00 1.862938e-01 1.850000e-02
         vertex 2.756683e+00 -5.533358e-01 1.850000e-02
         vertex 2.918258e+00 -4.852136e-01 1.850000e-02
      endloop
   endfacet
   facet normal 0.000000e+00 0.000000e+00 1.000000e+00
      outer loop
         vertex 2.682356e+00 1.862938e-01 1.850000e-02
         vertex 2.918258e+00 -4.852136e-01 1.850000e-02
         vertex 2.860394e+00 1.698412e-01 1.850000e-02
      endloop
   endfacet
   facet normal 0.000000e+00 0.000000e+00 1.000000e+00
      outer loop
         vertex 2.860394e+00 1.698412e-01 1.850000e-02
         vertex 2.918258e+00 -4.852136e-01 1.850000e-02
         vertex 3.022183e+00 -4.354658e-01 1.850000e-02
      endloop
   endfacet
   facet normal 0.000000e+00 0.000000e+00 1.000000e+00
      outer loop
         vertex 3.100879e+00 1.278222e-01 1.850000e-02
         vertex 3.292223e+00 -2.561845e-01 1.850000e-02
         vertex 3.194943e+00 1.010342e-01 1.850000e-02
      endloop
   endfacet
   facet normal 0.000000e+00 0.000000e+00 1.000000e+00
      outer loop
         vertex 4.392368e-01 -8.652958e-01 1.850000e-02
         vertex 4.786060e-01 -9.295009e-01 1.850000e-02
         vertex 5.770783e-01 -1.039298e+00 1.850000e-02
      endloop
   endfacet
   facet normal 0.000000e+00 0.000000e+00 1.000000e+00
      outer loop
         vertex 5.770783e-01 -1.039298e+00 1.850000e-02
         vertex 4.786060e-01 -9.295009e-01 1.850000e-02
         vertex 5.204842e-01 -9.839155e-01 1.850000e-02
      endloop
   endfacet
   facet normal 0.000000e+00 0.000000e+00 1.000000e+00
      outer loop
         vertex 5.770783e-01 -1.039298e+00 1.850000e-02
         vertex 5.204842e-01 -9.839155e-01 1.850000e-02
         vertex 5.661487e-01 -1.030607e+00 1.850000e-02
      endloop
   endfacet
   facet normal 0.000000e+00 0.000000e+00 1.000000e+00
      outer loop
         vertex 1.459181e+00 1.450860e-01 1.850000e-02
         vertex 1.065726e+00 1.033951e-01 1.850000e-02
         vertex 2.176490e+00 -8.093992e-01 1.850000e-02
      endloop
   endfacet
   facet normal 0.000000e+00 0.000000e+00 1.000000e+00
      outer loop
         vertex 2.176490e+00 -8.093992e-01 1.850000e-02
         vertex 1.065726e+00 1.033951e-01 1.850000e-02
         vertex 3.174311e-01 -3.917257e-01 1.850000e-02
      endloop
   endfacet
   facet normal 0.000000e+00 0.000000e+00 1.000000e+00
      outer loop
         vertex 2.176490e+00 -8.093992e-01 1.850000e-02
         vertex 3.174311e-01 -3.917257e-01 1.850000e-02
         vertex 2.160383e+00 -8.500760e-01 1.850000e-02
      endloop
   endfacet
   facet normal 0.000000e+00 0.000000e+00 1.000000e+00
      outer loop
         vertex 2.160383e+00 -8.500760e-01 1.850000e-02
         vertex 3.174311e-01 -3.917257e-01 1.850000e-02
         vertex 2.136437e+00 -8.906465e-01 1.850000e-02
      endloop
   endfacet
   facet normal 0.000000e+00 -0.000000e+00 1.000000e+00
      outer loop
         vertex 3.022183e+00 -4.354658e-01 1.850000e-02
         vertex 3.113950e+00 -3.845547e-01 1.850000e-02
         vertex 2.860394e+00 1.698412e-01 1.850000e-02
      endloop
   endfacet
   facet normal 0.000000e+00 0.000000e+00 1.000000e+00
      outer loop
         vertex 2.860394e+00 1.698412e-01 1.850000e-02
         vertex 3.113950e+00 -3.845547e-01 1.850000e-02
         vertex 3.201021e+00 -3.274867e-01 1.850000e-02
      endloop
   endfacet
   facet normal 0.000000e+00 0.000000e+00 1.000000e+00
      outer loop
         vertex 2.860394e+00 1.698412e-01 1.850000e-02
         vertex 3.201021e+00 -3.274867e-01 1.850000e-02
         vertex 2.991018e+00 1.507729e-01 1.850000e-02
      endloop
   endfacet
   facet normal 0.000000e+00 0.000000e+00 1.000000e+00
      outer loop
         vertex 2.991018e+00 1.507729e-01 1.850000e-02
         vertex 3.201021e+00 -3.274867e-01 1.850000e-02
         vertex 3.285180e+00 -2.620696e-01 1.850000e-02
      endloop
   endfacet
   facet normal 0.000000e+00 0.000000e+00 1.000000e+00
      outer loop
         vertex 2.991018e+00 1.507729e-01 1.850000e-02
         vertex 3.285180e+00 -2.620696e-01 1.850000e-02
         vertex 3.292223e+00 -2.561845e-01 1.850000e-02
      endloop
   endfacet
   facet normal 0.000000e+00 0.000000e+00 1.000000e+00
      outer loop
         vertex 3.194943e+00 1.010342e-01 1.850000e-02
         vertex 3.292223e+00 -2.561845e-01 1.850000e-02
         vertex 3.276706e+00 7.035340e-02 1.850000e-02
      endloop
   endfacet
   facet normal 0.000000e+00 0.000000e+00 1.000000e+00
      outer loop
         vertex 3.276706e+00 7.035340e-02 1.850000e-02
         vertex 3.292223e+00 -2.561845e-01 1.850000e-02
         vertex 3.341149e+00 -2.101411e-01 1.850000e-02
      endloop
   endfacet
   facet normal 0.000000e+00 0.000000e+00 1.000000e+00
      outer loop
         vertex 3.276706e+00 7.035340e-02 1.850000e-02
         vertex 3.341149e+00 -2.101411e-01 1.850000e-02
         vertex 3.375493e+00 -1.678949e-01 1.850000e-02
      endloop
   endfacet
   facet normal 0.000000e+00 -0.000000e+00 1.000000e+00
      outer loop
         vertex 3.375493e+00 -1.678949e-01 1.850000e-02
         vertex 3.393807e+00 -1.361381e-01 1.850000e-02
         vertex 3.276706e+00 7.035340e-02 1.850000e-02
      endloop
   endfacet
   facet normal 0.000000e+00 0.000000e+00 1.000000e+00
      outer loop
         vertex 3.276706e+00 7.035340e-02 1.850000e-02
         vertex 3.393807e+00 -1.361381e-01 1.850000e-02
         vertex 3.402380e+00 -1.138901e-01 1.850000e-02
      endloop
   endfacet
   facet normal 0.000000e+00 0.000000e+00 1.000000e+00
      outer loop
         vertex 3.276706e+00 7.035340e-02 1.850000e-02
         vertex 3.402380e+00 -1.138901e-01 1.850000e-02
         vertex 3.406795e+00 -9.410758e-02 1.850000e-02
      endloop
   endfacet
   facet normal 0.000000e+00 0.000000e+00 1.000000e+00
      outer loop
         vertex 3.276706e+00 7.035340e-02 1.850000e-02
         vertex 3.401361e+00 -3.980076e-02 1.850000e-02
         vertex 3.393422e+00 -2.233393e-02 1.850000e-02
      endloop
   endfacet
   facet normal 0.000000e+00 0.000000e+00 1.000000e+00
      outer loop
         vertex 3.393422e+00 -2.233393e-02 1.850000e-02
         vertex 3.379408e+00 -1.451612e-03 1.850000e-02
         vertex 3.276706e+00 7.035340e-02 1.850000e-02
      endloop
   endfacet
   facet normal 0.000000e+00 0.000000e+00 1.000000e+00
      outer loop
         vertex 3.276706e+00 7.035340e-02 1.850000e-02
         vertex 3.379408e+00 -1.451612e-03 1.850000e-02
         vertex 3.359271e+00 2.008907e-02 1.850000e-02
      endloop
   endfacet
   facet normal 0.000000e+00 0.000000e+00 1.000000e+00
      outer loop
         vertex 3.276706e+00 7.035340e-02 1.850000e-02
         vertex 3.359271e+00 2.008907e-02 1.850000e-02
         vertex 3.318904e+00 5.101740e-02 1.850000e-02
      endloop
   endfacet
   facet normal 0.000000e+00 -0.000000e+00 1.000000e+00
      outer loop
         vertex 3.406795e+00 -9.410758e-02 1.850000e-02
         vertex 3.407967e+00 -7.498893e-02 1.850000e-02
         vertex 3.276706e+00 7.035340e-02 1.850000e-02
      endloop
   endfacet
   facet normal 0.000000e+00 0.000000e+00 1.000000e+00
      outer loop
         vertex 3.276706e+00 7.035340e-02 1.850000e-02
         vertex 3.407967e+00 -7.498893e-02 1.850000e-02
         vertex 3.406023e+00 -5.669867e-02 1.850000e-02
      endloop
   endfacet
   facet normal 0.000000e+00 0.000000e+00 1.000000e+00
      outer loop
         vertex 3.276706e+00 7.035340e-02 1.850000e-02
         vertex 3.406023e+00 -5.669867e-02 1.850000e-02
         vertex 3.401361e+00 -3.980076e-02 1.850000e-02
      endloop
   endfacet
endsolid